/* XPM */
static char * Player_xpm[] = {
"45 45 20 1",
" 	c #009828",
".	c #089828",
"+	c #088828",
"@	c #60B028",
"#	c #28A828",
"$	c #202020",
"%	c #7050C0",
"&	c #006028",
"*	c #10A028",
"=	c #007820",
"-	c #A87000",
";	c #F0C800",
">	c #502890",
",	c #F8F8F8",
"'	c #88A098",
")	c #C8D0D0",
"!	c #C00000",
"~	c #980000",
"{	c #381068",
"]	c #385050",
"              ...........     +@     @       ",
"              ...........     +#   ++#      +",
"              ...........     +#   ++#      +",
"                                             ",
"             $$  @   @      $$$              ",
"             $$  @   @      $$$              ",
"       @++   $%$$#   #&&   $%%$   *      @++ ",
"    @@+#  +==$-%%$++@ ==+$$%--$$$$    @++#  +",
"   =##+*==+##$;-->$$$$$$$%%-;;$,''$  =#++*==+",
"   =##+*==+##$;-->$$$$$$$%%-;;$,''$  =#++*==+",
"   +==#   =  +$-->>>%%%%>>>-$$#$,,)$$+=##   =",
"    ++ +@@    $>>%%%!!~~%>>>$$ $)),''$+  +@@ ",
"    ++ +@@    $>>%%%!!~~%>>>$$ $)),''$+  +@@ ",
"       +##   $%{{{%%%~%%%{{{%%$$'',))$   +## ",
"              $--,%%%%%%>,,-$$  $$,,,'$      ",
"             $%;;$>>%%>>>$$;%%$ $$)%%%$      ",
"             $%;;$>>%%>>>$$;%%$ $$)%%%$      ",
"       #     *$%%->>))''>--%$$ $$$%%%%>$$@++ ",
"      * ***##  $$>)),,)))>>$++$]]]$%%%>$$#  +",
"      * ***##  $$>)),,)))>>$++$]]]$%%%>$$#  +",
"       ####   =$$']],,,,]''$$$]$$$$%%>>$$*==+",
"       *## ** +$${''))))'{{$$$$=$$%%%>{$$   =",
"      *   ***  $$$$$$$$$$$${>>$ $$%>>>{$$+@@ ",
"      *   ***  $$$$$$$$$$$${>>$ $$%>>>{$$+@@ ",
"        **    $$${$$'''''$$%%%$${{>>>>$$$+## ",
"           $$$'%%{$$),))'$$,''$$>>>{{$$      ",
"           $$$'%%{$$),))'$$,''$$>>>{{$$      ",
"      @   $'',)''$$$',,,$,,,''$>$$$$$        ",
"   &++#   $,,)'$$$$$])$$,,,'$$%>$$*      @++ ",
"   &++#   $,,)'$$$$$])$$,,,'$$%>$$*      @++ ",
"    @@++@@ $$$$%%%>>$]$$)''$%%%>$$    @++#  +",
"   =##+&**+++*$%%>>>{${{$$$%%%>$     =#++*==+",
"    ** &==    $>>>{{$$$$$%%%>>{$**   +=##   =",
"    ** &==    $>>>{{$$$$$%%%>>{$**   +=##   =",
"   @       ## .$${{{$$..$>>>>>$***    +  +@@ ",
"   #      +**$$))']]>$...$$>{{{$         +## ",
"   #      +**$$))']]>$...$$>{{{$         +## ",
"           $$),))]$$$   ${{'>>]$             ",
"           $$$$$$$$$    $)),'',$   @@  @@   @",
"      #    **    #    **$,,],,'$   ##&+##   #",
"      #    **    #    **$,,],,'$   ##&+##   #",
"    ** ***#    ** ***#   $$$$$$ ++=** @+++@@ ",
"      ####       ####    ==#++*=++#++=#++&**+",
"      ####       ####    ==#++*=++#++=#++&**+",
"      *#  *      *## *   ++=##  == ++ *  &== "};
