/* XPM */
static char * Win_xpm[] = {
"45 45 21 1",
" 	c #009828",
".	c #089828",
"+	c #088828",
"@	c #60B028",
"#	c #28A828",
"$	c #202020",
"%	c #006028",
"&	c #10A028",
"*	c #007820",
"=	c #7050C0",
"-	c #A87000",
";	c #F0C800",
">	c #502890",
",	c #88A098",
"'	c #C00000",
")	c #980000",
"!	c #F8F8F8",
"~	c #C8D0D0",
"{	c #FF00FF",
"]	c #385050",
"^	c #381068",
"              ...........     +@     @       ",
"              ...........     +#   ++#      +",
"              ...........     +#   ++#      +",
"                                             ",
"             @   @   @                       ",
"             @   @   @                       ",
"       @++   $$++#   #%%    $$$   &      @++ ",
"    @@+#  +**$=$$+++@ **+  $==$&##    @++#  +",
"   *##+&**+##$-==$%%&+++&$$=--$#     *#++&**+",
"   *##+&**+##$-==$%%&+++&$$=--$#     *#++&**+",
"   +**#   *  $;-->$$$$$$$==-;;$ &&   +*##   *",
"    ++ +@@    $-->>>====>>>-$$,$$$    +  +@@ ",
"    ++ +@@    $-->>>====>>>-$$,$$$    +  +@@ ",
"       +##   +$>>===''))=>>>$$$!,,$      +## ",
"             $=>>====)===>>>==$~!!~$$        ",
"              >$$$======>$$$>>{,!!!,,$       ",
"              >$$$======>$$$>>{,!!!,,$       ",
"       #     $=$$=$$==>>$==$==$$~~===$$  @++ ",
"      & &&&## $==>>>~~,,>>>=$${$=====>$++#  +",
"      & &&&## $==>>>~~,,>>>=$${$=====>$++#  +",
"       ####   *$$>~~!!~~~>>$$$$$$$===>$++&**+",
"       &## && +$$,]]!!!!],,=$$$]]]$>>>$##   *",
"      &   &&&  $$^,,~~~~,^^>==$$$$$>>>$  +@@ ",
"      &   &&&  $$^,,~~~~,^^>==$$$$$>>>$  +@@ ",
"        &&       $$$$$$$$$$^===$$$>>>$   +## ",
"              ...$$$,,,,,^^$===$>>>^^$       ",
"              ...$$$,,,,,^^$===$>>>^^$       ",
"      @   @   .$$,$$~!~~,^^$!!,$>>^$$        ",
"   %++#   #%% $$$$$$,!!!~~~$!!,$$$$      @++ ",
"   %++#   #%% $$$$$$,!!!~~~$!!,$$$$      @++ ",
"    @@++@@ **$$===>>]~~~~$$!!!,$$$    @++#  +",
"   *##+%&&+++$$==>>>$],,$$$!~~$>$$   *#++&**+",
"    && %**    $>>>^^$$^^$$$~,,$$&&   +*##   *",
"    && %**    $>>>^^$$^^$$$~,,$$&&   +*##   *",
"   @       ## .$$^^^$$$$$$$$$$$&&&    +  +@@ ",
"   #      +&&$$$$,]]>$...$$>^^$$         +## ",
"   #      +&&$$$$,]]>$...$$>^^$$         +## ",
"           $$~!~~]]]$$  $>>=^^]$             ",
"           $$$$$$$$$    $~~!,,!$   @@  @@   @",
"      #    &&    #    &&$!!]!!,$   ##%+##   #",
"      #    &&    #    &&$!!]!!,$   ##%+##   #",
"    && &&&#    && &&&#   $$$$$$ ++*&& @+++@@ ",
"      ####       ####    **#++&*++#++*#++%&&+",
"      ####       ####    **#++&*++#++*#++%&&+",
"      &#  &      &## &   ++*##  ** ++ &  %** "};
