/* XPM */
static char * coin_xpm[] = {
"45 45 113 2",
"  	c #FFFFFF",
". 	c #FDFDFD",
"+ 	c #FCFCFC",
"@ 	c #D8D8D8",
"# 	c #B0B0B0",
"$ 	c #B1B1B1",
"% 	c #B2B2B2",
"& 	c #222222",
"* 	c #1F1F1F",
"= 	c #1E1E1E",
"- 	c #272727",
"; 	c #2B2B2B",
"> 	c #282828",
", 	c #1D1D1D",
"' 	c #1B1B1B",
") 	c #191919",
"! 	c #020202",
"~ 	c #000000",
"{ 	c #0E0E0E",
"] 	c #040404",
"^ 	c #101010",
"/ 	c #181818",
"( 	c #0F0F0F",
"_ 	c #B6B6B6",
": 	c #424242",
"< 	c #444444",
"[ 	c #454545",
"} 	c #414141",
"| 	c #2E2E2E",
"1 	c #373737",
"2 	c #3D3D3D",
"3 	c #242424",
"4 	c #0C0C0C",
"5 	c #202020",
"6 	c #2F2F2F",
"7 	c #404040",
"8 	c #3C3C3C",
"9 	c #252525",
"0 	c #171717",
"a 	c #080808",
"b 	c #353535",
"c 	c #434343",
"d 	c #343434",
"e 	c #232323",
"f 	c #474747",
"g 	c #484848",
"h 	c #464646",
"i 	c #262626",
"j 	c #0D0D0D",
"k 	c #303030",
"l 	c #313131",
"m 	c #2D2D2D",
"n 	c #111111",
"o 	c #292929",
"p 	c #333333",
"q 	c #2C2C2C",
"r 	c #3E3E3E",
"s 	c #212121",
"t 	c #131313",
"u 	c #393939",
"v 	c #383838",
"w 	c #3B3B3B",
"x 	c #2A2A2A",
"y 	c #B4B4B4",
"z 	c #1A1A1A",
"A 	c #121212",
"B 	c #B3B3B3",
"C 	c #090909",
"D 	c #010101",
"E 	c #161616",
"F 	c #0A0A0A",
"G 	c #0B0B0B",
"H 	c #030303",
"I 	c #050505",
"J 	c #363636",
"K 	c #070707",
"L 	c #060606",
"M 	c #141414",
"N 	c #EF3E67",
"O 	c #F75A71",
"P 	c #FF7579",
"Q 	c #B5B5B5",
"R 	c #323232",
"S 	c #151515",
"T 	c #1C1C1C",
"U 	c #3F3F3F",
"V 	c #3A3A3A",
"W 	c #FFBABC",
"X 	c #494949",
"Y 	c #B9B9B9",
"Z 	c #525252",
"` 	c #565656",
" .	c #636363",
"..	c #6A6A6A",
"+.	c #676767",
"@.	c #5D5D5D",
"#.	c #595959",
"$.	c #5A5A5A",
"%.	c #666666",
"&.	c #5C5C5C",
"*.	c #606060",
"=.	c #696969",
"-.	c #626262",
";.	c #555555",
">.	c #585858",
",.	c #575757",
"'.	c #545454",
").	c #FEFEFE",
"!.	c #ECECEC",
"~.	c #DCDCDC",
"{.	c #DEDEDE",
"].	c #DFDFDF",
"^.	c #DDDDDD",
"  . + + + + + + + + + + + + + + + + + + + + + + + + + + + + + + + + + + + + + + + + + .   ",
". @ # # # # # # # # # $ $ $ $ # # # # # # # $ $ $ $ $ # # # # # # # # # # # # $ $ $ $ @ . ",
"+ % & * = = = = = = * - ; > , ' ) ! ~ ~ ~ ~ { ) ) ) ' * * * ' ] ~ ~ ~ ~ ^ = = ' / ) ( $ + ",
"+ _ : < < < < < < < < < [ } | 1 2 3 4 ( , = * 5 5 * 6 7 : : 8 9 , 0 a , b c c d e 5 ) $ + ",
"+ _ [ f f f f f f f f f g h 7 < } i j ^ * 5 5 5 5 5 - k l l m e 5 / n b c f f : 1 e / $ + ",
"+ _ [ f g g g g g g g g g g g : b e j ( * 5 5 5 * * = = = o p b b q * r g f f g : d s $ + ",
"+ _ c c : c c c c c c c c c : d & * t t * 5 5 & > o o o o u [ : : v > w c c h f f < x $ + ",
"+ _ 2 | x x x x x x x x x x x 9 5 5 , = 5 5 * x r } } } } < : k x - & > x l c f f < x $ + ",
"+ y ; 5 = z n ^ ^ ^ n n n n n z 5 5 s s 5 5 5 9 | k k k k 6 x 0 ( n A n ( ) q p b p s $ + ",
"+ B x m 9 ) j 4 j C D ~ ~ ~ ~ n z z z z z z ' E ] ~ ] F G ) * n 4 4 4 4 4 F j 3 | | o B + ",
"+ _ : : | = = = = ) ] ~ ~ ~ ~ H I I I I I I I ] D ~ n s e J 2 i , = = = 5 & 3 u < < } _ + ",
"+ _ [ [ k * 5 5 s ' I ~ ~ ~ ~ ~ ~ ~ ~ ~ ~ ~ ~ ~ ~ ~ e 8 r c } > = 5 5 5 k 2 r < f f [ _ + ",
"+ y v u o * 5 5 5 z I ~ ~ ~ ~ ~ ~ ~ ~ ~ ~ ~ ~ ~ ~ ~ o h g g < 1 d m z E o 1 v : g f [ _ + ",
"+ % * o o 9 5 5 5 z I ~ ~ ~ ~ ~ ~ ~ ~ ~ ~ ~ ~ ~ ~ ~ i } c c c : : J A K 4 { A p : c 7 _ + ",
"+ $ - r } J & 5 5 z I ~ ~ ~ ~ ~ ~ D D D D D D D H ! / ; q ; ; q q - , ' ' ' ' , e x i % + ",
"+ y b v v k 5 E t { ~ j j ~ ~ ~ L t M N O P P O N p b d = { n A A A M M M t n ] D j ~ # + ",
"+ Q R * ) ' ) ( F t s x 3 j G I G * N P P P P P P N f < | / F D ~ H F F F A * 0 S s T % + ",
"+ $ a n ^ j j ' * m 7 < u e = n G N P P P P P P P P N f < b ' a ~ ^ 5 & * > 8 k q U r Q + ",
"+ $ = 1 V | z * R 7 f g < V > A N P P W         W P P N g u 5 ) C s w 2 l 9 6 o - l | B + ",
"+ $ x [ g 7 p p U f f f g c ; N P P W             W P P N l s * j - [ g U k & = * = E $ + ",
"+ % 6 [ f h h h h f f f f < k O P P                 P P O & 5 5 ) m [ f f } | - - - & % + ",
"+ Q U h f f f f f f f f f h : P P P         P   P   P P P 5 5 & d } h f f h : 7 7 7 2 Q + ",
"+ y b v v v v v 1 8 h g g g g P P P         P   P   P P P 5 5 s k r f g g g g X < V d y + ",
"+ $ t T T T T T z o r } 7 7 7 O P P         P   P   P P O = 5 5 5 | U } U r r U J 5 0 $ + ",
"+ # ~ a a a a a K S 9 > > x x N P P W             W P P N S * * * e o > s / E 0 t j A $ + ",
"+ $ j / / / / / 0 ) = = q w 8 8 N P P W         W P P N ~ a ^ ^ j 3 1 > z t ! 4 S 0 E $ + ",
"+ $ ) 5 5 5 * 5 ; q = ; 8 h 7 2 2 N P P P P P P P P N ~ ~ ~ ~ ~ , b < u ; , G 9 R k * $ + ",
"+ $ ) 5 5 e i > w w z b < 7 q & 9 o N P P P P P P N ~ H n S M / v h h c J , j b h c m % + ",
"+ $ ) 5 5 k U 7 [ 2 E e | ; e = x 2 7 N O P P O N ~ ~ n b r 2 r < g [ J > T { J g f U Q + ",
"+ y d 1 J r f f r ; 4 j A ' R v v u u u v v | ' L j t ' p V u u u u J - * T { 1 g g [ _ + ",
"+ Q 7 h f f f f l C D ~ ~ M 1 7 u i 5 s 5 5 5 T ( ) 5 * , T , , , , T ' ' 0 G 6 7 } r Q + ",
"+ % | < h h h [ d 0 L D D L E ) ' * 5 s & & e & 5 & e s S G a a K C { ( ( 4 I n = - & % + ",
"+ # n o ; x x x = n S E E E M M / = = q V w w w 8 8 w w v ; / E a , b 1 v p * S t ( ~ # + ",
"+ # ~ ( s > - - - x k l l l l o 9 k l V f g f [ U < f f g u s * { > [ g < V i 5 T ( ~ # + ",
"+ # ~ s V : : < [ [ [ [ [ [ [ d x U [ [ [ h g } k r f f [ J s * ( 9 : [ v 3 s 5 & 3 * % + ",
"+ # ~ 5 ; | p c g f f f f f f R ) | } U p : g [ 7 < f [ b - 5 * ^ 0 q | > 5 5 * q r 2 Q + ",
"+ # ~ = * = 3 b u u V < c V u i F * R v u < g [ 8 v u 1 - * 5 5 n { = * 5 5 5 * k h h _ + ",
"+ # ] * 5 5 5 s * , s 1 J 5 , n C z T | 7 : : 8 > > > = T T T ' { 4 ' T T T T ' ; U U Q + ",
"+ $ E 5 5 * * * S K F E S F a I H a a ) > o o - e v J n K C C C ] ] C C C C a K 0 - 3 % + ",
"+ $ z * E { ( ^ a K S S S E E E S E E ) , = = T 0 q m / M S S S S S S S S n ] { ) = / $ + ",
"+ # ~ ~ G M j ~ ~ ~ ~ I ] ] I ) = F H M & e / ~ ~ ~ t & e e e e e e e e 3 ' ~ ~ I ! ~ # + ",
"+ Y Z `  ...+.@.` ` #.$.$.$.$. .%.&.#.*.=.=.-.#.;.>.*.=...=.=.=.=.=.=.=...%.>.,.$.$.'.Y + ",
").!.~.~.{.].{.^.~.~.~.~.~.~.~.{.{.^.~.^.{.{.^.~.~.~.^.{.{.{.{.{.{.{.{.{.{.{.~.~.~.~.~.!.).",
"                                                                                          ",
"                                                                                          "};
