/* XPM */
static char * coin_xpm[] = {
"45 45 20 1",
" 	c #009828",
".	c #089828",
"+	c #088828",
"@	c #60B028",
"#	c #28A828",
"$	c #006028",
"%	c #10A028",
"&	c #007820",
"*	c #000000",
"=	c #102121",
"-	c #314242",
";	c #101010",
">	c #425252",
",	c #738484",
"'	c #A5B5B5",
")	c #847310",
"!	c #F7D600",
"~	c #635210",
"{	c #941031",
"]	c #F71010",
"              ...........     +@     @       ",
"              ...........     +#   ++#      +",
"              ...........     +#   ++#      +",
"                                             ",
"             @   @   @                       ",
"             @   @   @                       ",
"       @++   #$++#   #$$    ##    %      @++ ",
"    @@+#  +&&% @@+++@ &&+  %  %%##    @++#  +",
"   &##+%&&+##+&##+$$%+++%  ***##     &#++%&&+",
"   &##+%&&+##+&##+$$%+++% *===*#     &#++%&&+",
"   +&&#   &  + %% $$&    *=====*%%   +&##   &",
"    ++ +@@    @       ## *======*%    +  +@@ ",
"    ++ +@@    @       ##*=======*%    +  +@@ ",
"       +##*****     ****========*        +## ",
"         **====*****=============*           ",
"         *==============*===*====*           ",
"         *=========*=---;---==*==*           ",
"       # *=====*===-;;=>>;>*==*==*$      @++ ",
"      % %*======*;=>>>;,,;,;=**==*&++ @++#  +",
"      % %%*========;-,,-,-'=)!!~==*++ @++#  +",
"       ###*=====->>>,,,,,'';!!!!*==*%&#++%&&+",
"       %##*==**;==;;=,,,''';!!!!**=**+&##   &",
"      %   *====-=)!!)-,,'''=)!!)*===**+  +@@ ",
"      %   *===->;!!!!;,,''''=;;=,,>==*+  +@@ ",
"        %%*===->;!!!!;,,,'''''',=***=*   +## ",
"         **===->=)!!)=,,,,'''',,,,>==*       ",
"         *====**>=;;=,,,-;;*>,,,=*-==*       ",
"      @  *==**=>>,,,,,-;;{{{*>,,,,**=*       ",
"   $++#  *=*==--*,,=,-;{{{{{{*,*=>-==*   @++ ",
"   $++#  *====**>>*,,;{{{{{{{*,,*-==*    @++ ",
"    @@++@*===*=--*>,-****{{{{*,,>*==* @++#  +",
"   &##+$%%*=====-*>,*]]]]**{{*,>-==* &#++%&&+",
"    %% $&&*=====*-=>*]]]]]]*{*>-==*  +&##   &",
"    %% $&& *===*==*-*{]]]]]]*=-==*   +&##   &",
"   @       #**===*===*{]]]]*=-==*%    +  +@@ ",
"   #      +%% *========****===**         +## ",
"   #      +%% ..***========***%          +## ",
"                   ********                  ",
"                                   @@  @@   @",
"      #    %%    #    %%      @+   ##$+##   #",
"      #    %%    #    %%      @+   ##$+##   #",
"    %% %%%#    %% %%%#     @++# ++&%% @+++@@ ",
"      ####       ####    &&#++%&++#++&#++$%%+",
"      ####       ####    &&#++%&++#++&#++$%%+",
"      %#  %      %## %   ++&##  && ++ %  $&& "};
