/* XPM */
static char * Exit_xpm[] = {
"45 45 959 2",
"  	c #46464B",
". 	c #C9C9C9",
"+ 	c #FFFFFF",
"@ 	c #FAFBFC",
"# 	c #DCDFE8",
"$ 	c #A2A5B2",
"% 	c #8A898D",
"& 	c #EAEAEA",
"* 	c #FEFEFE",
"= 	c #FDFDFE",
"- 	c #FDFDFD",
"; 	c #FCFCFC",
"> 	c #E6E7EE",
", 	c #B6B9C6",
"' 	c #76767F",
") 	c #AEB0BC",
"! 	c #E1E4EC",
"~ 	c #FBFBFC",
"{ 	c #EFF0F4",
"] 	c #C5C8D5",
"^ 	c #80808B",
"/ 	c #999BA7",
"( 	c #D7DAE4",
"_ 	c #F8F8FA",
": 	c #E9EAF0",
"< 	c #BCBFCC",
"[ 	c #787882",
"} 	c #A7A9B5",
"| 	c #7E7A86",
"1 	c #716C78",
"2 	c #C1BFC3",
"3 	c #C9C9CA",
"4 	c #F9FAFC",
"5 	c #E3E5EC",
"6 	c #BABBC5",
"7 	c #83828E",
"8 	c #89878B",
"9 	c #EBEBEB",
"0 	c #EFF0F5",
"a 	c #D7D8DE",
"b 	c #C3C1C5",
"c 	c #C0BFC2",
"d 	c #B3B2BA",
"e 	c #92929E",
"f 	c #727178",
"g 	c #C9CACF",
"h 	c #DEDFE4",
"i 	c #CDCCCF",
"j 	c #F4F4F4",
"k 	c #F1F2F6",
"l 	c #D1D3DB",
"m 	c #A1A1AD",
"n 	c #6F6D77",
"o 	c #9C9EAA",
"p 	c #D2D5E2",
"q 	c #E1E3EB",
"r 	c #D0D1D6",
"s 	c #B5B4BB",
"t 	c #9898A3",
"u 	c #6A6972",
"v 	c #898994",
"w 	c #9696A2",
"x 	c #787480",
"y 	c #726D79",
"z 	c #CBCBCB",
"A 	c #EFF0F2",
"B 	c #BCBEC9",
"C 	c #8B8A96",
"D 	c #615C67",
"E 	c #828187",
"F 	c #E0E0E4",
"G 	c #FCFDFE",
"H 	c #FDFEFE",
"I 	c #F1F2F5",
"J 	c #CED0D9",
"K 	c #A0A1AE",
"L 	c #77737F",
"M 	c #736D7A",
"N 	c #746F7B",
"O 	c #6C6772",
"P 	c #6A676E",
"Q 	c #C2C2C4",
"R 	c #C4C2C6",
"S 	c #908C94",
"T 	c #CFCED1",
"U 	c #E4E4E5",
"V 	c #E3E2E4",
"W 	c #E1E0E2",
"X 	c #CACBD4",
"Y 	c #A4A5B2",
"Z 	c #76727E",
"` 	c #5F5B64",
" .	c #90919C",
"..	c #B8BBC8",
"+.	c #93929F",
"@.	c #736E7A",
"#.	c #6F6A76",
"$.	c #5E5A63",
"%.	c #67636D",
"&.	c #736D79",
"*.	c #C8C9CA",
"=.	c #E2E1E4",
"-.	c #908D96",
";.	c #75707D",
">.	c #65606B",
",.	c #73737B",
"'.	c #BCBFCA",
").	c #E6E7EC",
"!.	c #ECEDF0",
"~.	c #CCCED9",
"{.	c #9B9BA6",
"].	c #716C77",
"^.	c #6A6671",
"/.	c #5C5962",
"(.	c #78747D",
"_.	c #7F7B84",
":.	c #75707B",
"<.	c #817D87",
"[.	c #86838B",
"}.	c #86828B",
"|.	c #85828B",
"1.	c #807D87",
"2.	c #797581",
"3.	c #6F6A75",
"4.	c #5D5962",
"5.	c #696770",
"6.	c #7C7984",
"7.	c #75717D",
"8.	c #706C77",
"9.	c #5C5861",
"0.	c #6F6C76",
"a.	c #7B7783",
"b.	c #75707C",
"c.	c #424249",
"d.	c #B1B3BB",
"e.	c #C7C9D2",
"f.	c #817D88",
"g.	c #625E69",
"h.	c #515058",
"i.	c #757780",
"j.	c #909196",
"k.	c #959599",
"l.	c #7E8089",
"m.	c #5F5F68",
"n.	c #4C4A53",
"o.	c #4F4D56",
"p.	c #504D56",
"q.	c #44434A",
"r.	c #47454E",
"s.	c #4C4953",
"t.	c #4E4C55",
"u.	c #4B4852",
"v.	c #4A4751",
"w.	c #4B4952",
"x.	c #4E4B54",
"y.	c #4E4C54",
"z.	c #46444C",
"A.	c #47454D",
"B.	c #4C4A52",
"C.	c #4D4A53",
"D.	c #4C4B53",
"E.	c #9698A3",
"F.	c #A6A7B4",
"G.	c #797582",
"H.	c #3D3D44",
"I.	c #8A8B97",
"J.	c #9E9FAC",
"K.	c #605D67",
"L.	c #38373E",
"M.	c #2E2E35",
"N.	c #292931",
"O.	c #282731",
"P.	c #2D2D34",
"Q.	c #323239",
"R.	c #34343B",
"S.	c #35353C",
"T.	c #34353C",
"U.	c #42434A",
"V.	c #A5A8B4",
"W.	c #CACDD8",
"X.	c #BAB9BE",
"Y.	c #8D8992",
"Z.	c #C0BEC2",
"`.	c #3A3A41",
" +	c #706F79",
".+	c #8A8995",
"++	c #868490",
"@+	c #605C67",
"#+	c #393940",
"$+	c #36363D",
"%+	c #34333A",
"&+	c #43434A",
"*+	c #A2A6B2",
"=+	c #DEE1EA",
"-+	c #F0F0F2",
";+	c #AAA8AD",
">+	c #BEBDC0",
",+	c #3F3F46",
"'+	c #BEC1CF",
")+	c #B9BCC9",
"!+	c #908E9B",
"~+	c #5E5964",
"{+	c #A3A6B2",
"]+	c #E0E3EB",
"^+	c #F4F4F5",
"/+	c #ADABB0",
"(+	c #BFBEC1",
"_+	c #3C3C43",
":+	c #7D7F88",
"<+	c #9D9FAA",
"[+	c #9799A4",
"}+	c #75747E",
"|+	c #4F4B55",
"1+	c #302F36",
"2+	c #2E2D33",
"3+	c #2F2E35",
"4+	c #37373E",
"5+	c #33333A",
"6+	c #2A2A32",
"7+	c #313139",
"8+	c #37373D",
"9+	c #2B2B33",
"0+	c #2F2F36",
"a+	c #47484D",
"b+	c #BCBEC3",
"c+	c #F4F5F9",
"d+	c #F9FAFB",
"e+	c #CACBD2",
"f+	c #D4D5DB",
"g+	c #504D55",
"h+	c #6B6973",
"i+	c #83838D",
"j+	c #96969B",
"k+	c #818083",
"l+	c #4D4E56",
"m+	c #616773",
"n+	c #727682",
"o+	c #6C6E76",
"p+	c #46454D",
"q+	c #3E3D44",
"r+	c #3B3A41",
"s+	c #303037",
"t+	c #2F2F37",
"u+	c #191923",
"v+	c #27272F",
"w+	c #2D2D35",
"x+	c #1B1B25",
"y+	c #22222B",
"z+	c #414146",
"A+	c #B4B4B5",
"B+	c #E3E2E3",
"C+	c #DEDEDF",
"D+	c #C3C5CE",
"E+	c #D9DAE1",
"F+	c #38383F",
"G+	c #5A5660",
"H+	c #8F8E9A",
"I+	c #C3C6D2",
"J+	c #E9EAED",
"K+	c #C7C6C7",
"L+	c #6F717C",
"M+	c #98A4B7",
"N+	c #B8C0D1",
"O+	c #B0B3C0",
"P+	c #717079",
"Q+	c #57545C",
"R+	c #444249",
"S+	c #1E1D27",
"T+	c #1A1A24",
"U+	c #1C1C25",
"V+	c #171722",
"W+	c #272730",
"X+	c #1D1D27",
"Y+	c #1B1B24",
"Z+	c #25242D",
"`+	c #67666C",
" @	c #807F85",
".@	c #727179",
"+@	c #393840",
"@@	c #5C5862",
"#@	c #9494A0",
"$@	c #CDD0DC",
"%@	c #F4F6F9",
"&@	c #D1D1D1",
"*@	c #747781",
"=@	c #A0ACC0",
"-@	c #C1C9DB",
";@	c #C7CBD8",
">@	c #B0B3BF",
",@	c #7D7D87",
"'@	c #423F47",
")@	c #1D1D26",
"!@	c #292930",
"~@	c #313138",
"{@	c #26262E",
"]@	c #383840",
"^@	c #8C8E99",
"/@	c #AAADB9",
"(@	c #81808B",
"_@	c #BDBBBE",
":@	c #FDFCFD",
"<@	c #5D5963",
"[@	c #888692",
"}@	c #B2B4BF",
"|@	c #DFE0E7",
"1@	c #C3C3C7",
"2@	c #727580",
"3@	c #9FABBF",
"4@	c #BFC7D9",
"5@	c #CDD1DF",
"6@	c #C7CBD9",
"7@	c #8F8F9B",
"8@	c #46424C",
"9@	c #282830",
"0@	c #32323A",
"a@	c #43444B",
"b@	c #A6A9B5",
"c@	c #C7CAD8",
"d@	c #B0B2BF",
"e@	c #5F5B66",
"f@	c #817E8A",
"g@	c #B3B5C1",
"h@	c #A4A5B0",
"i@	c #6F727D",
"j@	c #9FABC0",
"k@	c #CFD3E0",
"l@	c #D0D3DE",
"m@	c #ACACB5",
"n@	c #737177",
"o@	c #24232C",
"p@	c #11111D",
"q@	c #404148",
"r@	c #B9BBC8",
"s@	c #5F5C66",
"t@	c #85838F",
"u@	c #787680",
"v@	c #6C6E7A",
"w@	c #BEC6D8",
"x@	c #D8DBE6",
"y@	c #F0F0F1",
"z@	c #BDBCBD",
"A@	c #38383D",
"B@	c #030316",
"C@	c #1E1E27",
"D@	c #1F1F28",
"E@	c #22222A",
"F@	c #2C2C33",
"G@	c #181822",
"H@	c #32333B",
"I@	c #A3A7B2",
"J@	c #807C88",
"K@	c #746E7A",
"L@	c #65606A",
"M@	c #6B6D79",
"N@	c #DBDEE8",
"O@	c #FBFCFD",
"P@	c #D0D0D0",
"Q@	c #47474B",
"R@	c #20202A",
"S@	c #2F2E36",
"T@	c #3E3C44",
"U@	c #413F47",
"V@	c #34323A",
"W@	c #23232C",
"X@	c #0F0F1C",
"Y@	c #0E0E1C",
"Z@	c #14141F",
"`@	c #0E0E1B",
" #	c #050515",
".#	c #2B2C35",
"+#	c #A1A4B0",
"@#	c #CED0DB",
"##	c #C6C6CA",
"$#	c #939098",
"%#	c #BFBEC2",
"&#	c #3B3A42",
"*#	c #898793",
"=#	c #77727E",
"-#	c #67626C",
";#	c #BDC6D8",
">#	c #DBDDE7",
",#	c #CFCFD0",
"'#	c #4F4F53",
")#	c #403F46",
"!#	c #46454C",
"~#	c #55525A",
"{#	c #58555D",
"]#	c #47444C",
"^#	c #202029",
"/#	c #161621",
"(#	c #1B1A24",
"_#	c #33343C",
":#	c #A0A4B0",
"<#	c #E0E2EB",
"[#	c #F3F4F5",
"}#	c #ACAAAF",
"|#	c #3F4047",
"1#	c #9DA0AB",
"2#	c #B3B5C2",
"3#	c #C0C8D9",
"4#	c #DDE0E9",
"5#	c #CDCDCE",
"6#	c #525257",
"7#	c #545259",
"8#	c #26262F",
"9#	c #24242D",
"0#	c #EEEEF0",
"a#	c #A9A7AC",
"b#	c #BEBDC1",
"c#	c #BBBDCB",
"d#	c #67626D",
"e#	c #A1ADC0",
"f#	c #D4DAE5",
"g#	c #F4F4F7",
"h#	c #ECEDF2",
"i#	c #B8B9C1",
"j#	c #5B5A61",
"k#	c #535058",
"l#	c #57535B",
"m#	c #555259",
"n#	c #24242C",
"o#	c #201F28",
"p#	c #36363E",
"q#	c #C6C9D4",
"r#	c #B2B1B7",
"s#	c #89858E",
"t#	c #8B8D97",
"u#	c #9E9FAB",
"v#	c #726F79",
"w#	c #5F5A63",
"x#	c #6A6C78",
"y#	c #A2ADC1",
"z#	c #DFE4EC",
"A#	c #FCFCFD",
"B#	c #DFE1EA",
"C#	c #A9ACB8",
"D#	c #5F5D65",
"E#	c #545159",
"F#	c #6D707C",
"G#	c #7E8594",
"H#	c #7C8291",
"I#	c #676873",
"J#	c #45424A",
"K#	c #0F101C",
"L#	c #21212A",
"M#	c #12121E",
"N#	c #050516",
"O#	c #B5B7BE",
"P#	c #CACBD3",
"Q#	c #7F7B86",
"R#	c #706A77",
"S#	c #C1C0C3",
"T#	c #55535B",
"U#	c #636069",
"V#	c #5F5C65",
"W#	c #6B6A73",
"X#	c #65636B",
"Y#	c #6A6D79",
"Z#	c #A1ADC1",
"`#	c #DFE2EA",
" $	c #626069",
".$	c #646570",
"+$	c #8E97A9",
"@$	c #AAB7CC",
"#$	c #A9B5C9",
"$$	c #808593",
"%$	c #48454D",
"&$	c #181823",
"*$	c #050517",
"=$	c #343439",
"-$	c #BFC0C1",
";$	c #D4D3D6",
">$	c #817D86",
",$	c #6D6774",
"'$	c #5A5760",
")$	c #6D6873",
"!$	c #78747F",
"~$	c #A8AAB6",
"{$	c #9B9CA7",
"]$	c #6E707D",
"^$	c #A9ABB7",
"/$	c #6C6D78",
"($	c #919BAD",
"_$	c #A5B2C8",
":$	c #B3BFD3",
"<$	c #BFC6D6",
"[$	c #9596A3",
"}$	c #5B5760",
"|$	c #303038",
"1$	c #151520",
"2$	c #11121E",
"3$	c #13131E",
"4$	c #78787B",
"5$	c #66636B",
"6$	c #BBBABD",
"7$	c #39383F",
"8$	c #5A5661",
"9$	c #928F96",
"0$	c #C4C3C8",
"a$	c #CFD1DC",
"b$	c #AAACB8",
"c$	c #6F727E",
"d$	c #A8ABB7",
"e$	c #70727E",
"f$	c #9EABBF",
"g$	c #ACBBD1",
"h$	c #B5C0D4",
"i$	c #C5CAD8",
"j$	c #9C9BA7",
"k$	c #3B3B42",
"l$	c #4A484F",
"m$	c #3C3B42",
"n$	c #191823",
"o$	c #2A2A31",
"p$	c #23232B",
"q$	c #0C0C1A",
"r$	c #2A2A30",
"s$	c #99989A",
"t$	c #B8B8BC",
"u$	c #9D9EA9",
"v$	c #777681",
"w$	c #BCBBBE",
"x$	c #6D6C78",
"y$	c #B9B8BE",
"z$	c #F3F3F4",
"A$	c #D6D7DF",
"B$	c #9A9BA7",
"C$	c #6E717D",
"D$	c #9DA9BD",
"E$	c #ABBAD0",
"F$	c #C5C9D8",
"G$	c #9B9BA7",
"H$	c #605C66",
"I$	c #3C3B43",
"J$	c #3D3C43",
"K$	c #3F3E45",
"L$	c #45444B",
"M$	c #10101D",
"N$	c #040416",
"O$	c #37373C",
"P$	c #CACACA",
"Q$	c #F5F6F9",
"R$	c #D6D8E1",
"S$	c #9897A2",
"T$	c #404047",
"U$	c #9B9EA9",
"V$	c #DADCE4",
"W$	c #F2F2F4",
"X$	c #B6B4BA",
"Y$	c #6D6A75",
"Z$	c #414047",
"`$	c #4E4C53",
" %	c #54525A",
".%	c #13131F",
"+%	c #171721",
"@%	c #020215",
"#%	c #CACACB",
"$%	c #FEFEFF",
"%%	c #A6A3AA",
"&%	c #BFBDC1",
"*%	c #44444A",
"=%	c #BDBEC2",
"-%	c #ECEEF4",
";%	c #DDDFE6",
">%	c #9F9EA7",
",%	c #615C66",
"'%	c #B4BFD3",
")%	c #65616B",
"!%	c #504E56",
"~%	c #535057",
"{%	c #10101C",
"]%	c #11111E",
"^%	c #CBCCCC",
"/%	c #EEEEEE",
"(%	c #BBB9BD",
"_%	c #8A868F",
":%	c #EEEEF1",
"<%	c #B8B9C5",
"[%	c #898894",
"}%	c #A8AAB7",
"|%	c #9EAABE",
"1%	c #B2BED3",
"2%	c #BDC6D7",
"3%	c #C6CAD9",
"4%	c #9B9AA7",
"5%	c #68636D",
"6%	c #5F5D67",
"7%	c #757A87",
"8%	c #6D6F7C",
"9%	c #57555D",
"0%	c #4A474F",
"a%	c #1E1E28",
"b%	c #38373C",
"c%	c #CDCDCD",
"d%	c #E2E1E2",
"e%	c #848089",
"f%	c #6E6976",
"g%	c #CBCBCC",
"h%	c #8E8B94",
"i%	c #736E7B",
"j%	c #FCFDFD",
"k%	c #E3E5ED",
"l%	c #AEB0BA",
"m%	c #CBD0DE",
"n%	c #C8CCDA",
"o%	c #9A9AA7",
"p%	c #66616B",
"q%	c #686974",
"r%	c #99A5B8",
"s%	c #8991A2",
"t%	c #58555E",
"u%	c #4D4B52",
"v%	c #2C2C34",
"w%	c #36363B",
"x%	c #DDDDDF",
"y%	c #85818B",
"z%	c #88848D",
"A%	c #706B78",
"B%	c #F8F9FB",
"C%	c #C8C8CB",
"D%	c #73757F",
"E%	c #BEC7D9",
"F%	c #696A75",
"G%	c #9DA8BC",
"H%	c #8B94A6",
"I%	c #4D4B53",
"J%	c #080717",
"K%	c #2F3037",
"L%	c #AEB1B9",
"M%	c #716B78",
"N%	c #BABCC1",
"O%	c #D2D2D9",
"P%	c #85818C",
"Q%	c #69646E",
"R%	c #62626C",
"S%	c #878E9D",
"T%	c #D6D8DD",
"U%	c #F3F4F8",
"V%	c #C1C2C7",
"W%	c #72747F",
"X%	c #9EA9BE",
"Y%	c #C9CDDB",
"Z%	c #686A75",
"`%	c #9CA8BC",
" &	c #8B94A5",
".&	c #48464D",
"+&	c #48464E",
"@&	c #49474E",
"#&	c #090918",
"$&	c #2C2D36",
"%&	c #A2A5B1",
"&&	c #B7B9C7",
"*&	c #3E3F46",
"=&	c #787580",
"-&	c #6D6874",
";&	c #66626C",
">&	c #5F5D64",
",&	c #C3C3C6",
"'&	c #F6F7F9",
")&	c #F3F3F6",
"!&	c #D3D5DF",
"~&	c #6E707C",
"{&	c #BBC5D7",
"]&	c #C4CAD9",
"^&	c #93929E",
"/&	c #67616C",
"(&	c #8B93A5",
"_&	c #3A3940",
":&	c #4B4951",
"<&	c #56535B",
"[&	c #1C1C26",
"}&	c #090818",
"|&	c #7E7B87",
"1&	c #66666D",
"2&	c #75747C",
"3&	c #605D66",
"4&	c #5B5961",
"5&	c #A8AAB4",
"6&	c #D2D6E1",
"7&	c #CED1DC",
"8&	c #A4A4AF",
"9&	c #726E79",
"0&	c #AEBCD1",
"a&	c #A5AEC1",
"b&	c #8A8A97",
"c&	c #7A7581",
"d&	c #68636E",
"e&	c #8D96A7",
"f&	c #5C5B64",
"g&	c #0D0D1A",
"h&	c #2D2E36",
"i&	c #A0A4AF",
"j&	c #B5B7C4",
"k&	c #7D7985",
"l&	c #706B77",
"m&	c #A8A8A9",
"n&	c #BCBBBD",
"o&	c #747179",
"p&	c #65616C",
"q&	c #625F68",
"r&	c #59565E",
"s&	c #83828D",
"t&	c #9D9DAA",
"u&	c #827F8B",
"v&	c #6A6B77",
"w&	c #98A3B7",
"x&	c #7C8190",
"y&	c #73707C",
"z&	c #A1AEC2",
"A&	c #8790A0",
"B&	c #61616B",
"C&	c #56525A",
"D&	c #3D3C44",
"E&	c #4C4A51",
"F&	c #33333B",
"G&	c #767780",
"H&	c #858690",
"I&	c #65626C",
"J&	c #45454A",
"K&	c #C0C1C5",
"L&	c #E3E4E8",
"M&	c #B6B4B9",
"N&	c #6A6C77",
"O&	c #8891A2",
"P&	c #9DA9BC",
"Q&	c #AEBCD3",
"R&	c #676974",
"S&	c #555159",
"T&	c #504E55",
"U&	c #58545D",
"V&	c #3B3C43",
"W&	c #71727B",
"X&	c #8B8C97",
"Y&	c #878893",
"Z&	c #6D6C76",
"`&	c #9EA1AB",
" *	c #D8DBE3",
".*	c #EAEAEC",
"+*	c #AAA8AE",
"@*	c #64606B",
"#*	c #57545D",
"$*	c #68646E",
"%*	c #716D78",
"&*	c #605C65",
"**	c #ADBCD2",
"=*	c #676874",
"-*	c #514E56",
";*	c #42424A",
">*	c #A0A3AE",
",*	c #CACEDB",
"'*	c #C6C9D5",
")*	c #93929D",
"!*	c #72717C",
"~*	c #ADADB8",
"{*	c #D1D3DD",
"]*	c #9F9EA8",
"^*	c #66616C",
"/*	c #7A7682",
"(*	c #A8A9B6",
"_*	c #555158",
":*	c #514F56",
"<*	c #A3A7B3",
"[*	c #DCDFE9",
"}*	c #E9EAEE",
"|*	c #A6A4AB",
"1*	c #5B5761",
"2*	c #A2A3B0",
"3*	c #878491",
"4*	c #5D5862",
"5*	c #635E69",
"6*	c #9495A0",
"7*	c #8C8C97",
"8*	c #808797",
"9*	c #747986",
"0*	c #6F6975",
"a*	c #726C79",
"b*	c #5D5D67",
"c*	c #8C95A7",
"d*	c #808898",
"e*	c #5C5B65",
"f*	c #514D54",
"g*	c #545058",
"h*	c #524F56",
"i*	c #524F57",
"j*	c #534F57",
"k*	c #2C2B32",
"l*	c #44454B",
"m*	c #B8BAC0",
"n*	c #E1E2E7",
"o*	c #CCCBCE",
"p*	c #959299",
"q*	c #86838F",
"r*	c #797782",
"s*	c #73737C",
"t*	c #7A7A83",
"u*	c #797983",
"v*	c #7B7B85",
"w*	c #7B7B84",
"x*	c #7A7A84",
"y*	c #696871",
"z*	c #67656E",
"A*	c #868590",
"B*	c #8C8A96",
"C*	c #85848F",
"D*	c #6E6D76",
"E*	c #5E5C64",
"F*	c #71717A",
"G*	c #797982",
"H*	c #74757E",
"I*	c #6B6D76",
"J*	c #6B6C75",
"K*	c #6C6E77",
"L*	c #63646D",
"M*	c #57575D",
"N*	c #CECECF",
"O*	c #E1E1E2",
"P*	c #89868F",
"Q*	c #7C7884",
"R*	c #ADAFBC",
"S*	c #9FA0AC",
"T*	c #75757E",
"U*	c #B3B6C1",
"V*	c #C3C6D3",
"W*	c #C1C5D1",
"X*	c #C2C5D2",
"Y*	c #C0C4D0",
"Z*	c #7C7C86",
"`*	c #B7BAC7",
" =	c #C0C3D1",
".=	c #C0C3D0",
"+=	c #A5A7B2",
"@=	c #73727B",
"#=	c #AEB1BC",
"$=	c #C2C5D1",
"%=	c #C1C4D1",
"&=	c #BDC0CD",
"*=	c #BDC0CE",
"==	c #ADB0BC",
"-=	c #76767E",
";=	c #D0D0D1",
">=	c #6F6A77",
",=	c #9695A2",
"'=	c #868691",
")=	c #838288",
"!=	c #DCDDE2",
"~=	c #F1F2F7",
"{=	c #EEEFF4",
"]=	c #EDEEF4",
"^=	c #EDEFF4",
"/=	c #ECEEF3",
"(=	c #B3B4B9",
"_=	c #706F78",
":=	c #9B9CA8",
"<=	c #A1A2AE",
"[=	c #C3C4CD",
"}=	c #EFF1F6",
"|=	c #EEF0F5",
"1=	c #C8C9CE",
"2=	c #D4D5DA",
"3=	c #F0F2F7",
"4=	c #F0F1F6",
"5=	c #BBBCC5",
"6=	c #A1A2AF",
"7=	c #9696A3",
"8=	c #727078",
"9=	c #D1D1D2",
"0=	c #7C7A7F",
"a=	c #CFCFD1",
"b=	c #E1E0E1",
"c=	c #E3E3E4",
"d=	c #F7F7F7",
"e=	c #F4F5F8",
"f=	c #B7B7BB",
"g=	c #716B77",
"h=	c #716C79",
"i=	c #A7A5AA",
"j=	c #DDDCDE",
"k=	c #E2E1E3",
"l=	c #F6F6F9",
"m=	c #CBCCD0",
"n=	c #858389",
"o=	c #D8D9DC",
"p=	c #ECEDEF",
"q=	c #D9D8DA",
"r=	c #9B989F",
"s=	c #68656D",
"t=	c #D2D2D3",
"u=	c #E8E8EA",
"v=	c #A3A3AD",
"w=	c #9595A2",
"x=	c #CDCDD2",
"y=	c #5C5963",
"z=	c #5F5C64",
"A=	c #7C7881",
"B=	c #8F8C93",
"C=	c #D8D8D9",
"D=	c #D2D5DE",
"E=	c #999BA5",
"F=	c #5D5A63",
"G=	c #6D6974",
"H=	c #77737E",
"I=	c #827E87",
"J=	c #A9AAB5",
"K=	c #D4D6DF",
"L=	c #EEEFF1",
"M=	c #DCDEE5",
"N=	c #AAACB7",
"O=	c #74747C",
"P=	c #B4B7C2",
"Q=	c #AEAFBA",
"R=	c #84818A",
"S=	c #837F88",
"T=	c #838088",
"U=	c #817E87",
"V=	c #75717C",
"W=	c #6A6571",
"X=	c #646269",
"Y=	c #C9C8C9",
"Z=	c #E7E8EB",
"`=	c #C4C7D3",
" -	c #DEDFE6",
".-	c #424049",
"+-	c #4C4952",
"@-	c #46444D",
"#-	c #403F47",
"$-	c #45424C",
"%-	c #46444E",
"&-	c #4F4D55",
"*-	c #838385",
"=-	c #989899",
"--	c #939396",
";-	c #7F8188",
">-	c #5E6069",
",-	c #424149",
"'-	c #4A4851",
")-	c #47444E",
"!-	c #62636D",
"~-	c #808289",
"{-	c #929295",
"]-	c #86878D",
"^-	c #676972",
"/-	c #4C4C54",
"(-	c #6D6F78",
"_-	c #656670",
":-	c #47454F",
"<-	c #46434D",
"[-	c #46434E",
"}-	c #49464F",
"|-	c #7C7C7E",
"1-	c #8F9094",
"2-	c #7A7C86",
"3-	c #C3C4C7",
"4-	c #B3B3B4",
"5-	c #B1B1B2",
"6-	c #B0B0B1",
"7-	c #B3B3B3",
"8-	c #B2B2B3",
"9-	c #B2B1B2",
"0-	c #D8D8D8",
"  . + @ # $ % & + + + * = - ; > , ' ) ! ~ + + + + + { ] ^ / ( _ * - - - : < [ } , | 1 2 - ",
"  3 4 5 6 7 8 9 + + * 0 a b c d e f g h i j + + + k l m n o p q r c 2 2 s t u v w x y 2 - ",
"  z A B C D E F G H I J K L M N O P Q R S T U V W X Y Z `  ..., +.y @.@.N #.$.%.&.N @.2 - ",
"  *.=.-.;.>.,.'.).!.~.{.Z 1 ].1 ^./.(._.:.<.[.}.|.1.2.3.4.5.6.6.7.8.1 1 1 O 9.0.a.b.@.2 - ",
"c.d.e.f.1 g.h.i.j.k.l.m.n.o.o.p.n.q.r.s.t.u.v.v.v.w.x.y.z.A.B.C.t.o.o.o.p.B.D.E.F.G.1 2 - ",
"H.I.J.x &.K.L.M.N.O.P.Q.R.R.R.R.R.S.T.R.R.R.R.R.R.R.R.R.S.S.R.R.R.R.R.R.R.Q.U.V.W.X.Y.Z.- ",
"`. +.+++a.@+#+S.$+$+$+$+$+$+$+$+$+$+$+$+$+$+$+$+$+$+$+$+$+$+$+$+$+$+$+$+$+%+&+*+=+-+;+>+- ",
",+E.'+)+!+~+#+S.$+$+$+$+$+$+$+$+$+$+$+$+$+$+$+$+$+$+$+$+$+$+$+$+$+$+$+$+$+%+&+{+]+^+/+(+- ",
"_+:+<+[+}+|+$+1+2+3+R.S.$+$+$+4+5+6+7+8+$+$+$+$+$+$+$+S.9+0+$+8+$+$+$+$+$+5+a+b+c+d+e+f+= ",
"L.g+h+i+j+k+l+m+n+o+p+q+r+s+0+t+N.u+v+Q.$+$+$+$+$+$+R.w+x+y+0+0+0+0+t+0+0+9+z+A+B+C+D+E+H ",
"F+G+H+I+J+K+L+M+N+O+P+Q+R+S+T+U+T+V+u+W+S.$+$+$+$+$+0+X+V+u+x+x+x+T+u+Y+U+T+Z+`+E  @.@(+- ",
"+@@@#@$@%@&@*@=@-@;@>@,@'@)@!@M.w+w+w+~@$+$+$+$+$+$+5+M.w+w+w+w+w+{@V+v+M.9+]@^@O+/@(@_@:@",
"+@<@[@}@|@1@2@3@4@5@6@7@8@S+9@0@4+4+4+4+$+$+$+$+$+$+$+$+$+$+$+4+4+Q.N.5+4+R.a@b@c@d@[@c - ",
"+@e@N f@g@h@i@j@4@k@l@m@n@o@p@v+0@0@0@0@5+S.R.5+0@0@R.$+$+$+S.5+0@Q.Q.Q.5+s+q@V.r@f@M 2 - ",
"+@s@N 7.t@u@v@=@w@x@I y@z@A@B@u+C@D@D@C@E@~@F@C@X+)@9@S.$+$+Q.y+)@X+C@X+X+G@H@I@..J@y 2 - ",
"F+<@y K@y L@M@=@w@N@O@+ P@Q@R@v+S@T@U@V@u+W@C@X@X@Y@T+{@9@9@W@Z@`@X@X@X@X@ #.#+#@###$#%#- ",
"&#}+*#=#N -#M@=@;#>#@ + ,#'##+)#!#~#{#]#T+p@u+D@D@D@^#C@/#u+D@D@D@D@D@D@D@(#_#:#<#[#}#>+- ",
"|#1#2#| &.-#M@=@3#4#~ + 5#6#B.7#~#Q+{#]#T+p@8#5+5+Q.Q.t+X+9#7+Q.Q.Q.Q.Q.Q.0+|#$ 4#0#a#b#- ",
"q@V.c#J@&.d#M@e#f#g#O@h#i#j#k#l#m#m#Q+]#T+p@N.4+$+F@W@y+V+x+W@n#n#n#n#n#n#o#p#$ q#r#s#Z.- ",
"H.t#u#v#d#w#x#y#z#+ A#B#C#D#E#F#G#H#I#J#u+K#L#F@9+X+X@p@M#M#p@p@p@p@p@p@p@N#~@O#P#Q#R#S#- ",
"F+T#U#V#W#X#Y#Z#z#+ A#`#C# $.$+$@$#$$$%$^#&$x+U+U+T+V+M#M#M#M#M#M#M#M#M#M#*$=$-$;$>$,$c - ",
"F+'$)$!$~${$]$e#z#+ A#`#^$/$($_$:$<$[$}$S.t+s+s+|$~@N.1$2$M#M#M#3$M#M#M#M#Y@E@4$% 5$4.6$; ",
"7$8$9$0$a$b$c$e#z#+ A#`#d$e$f$g$h$i$j$D k$S.S.r+A.l$m$n$p@p@&$8#o$p$V+n#L#q$r$s$t$u$v$w$A#",
"`.x$y$z$A$B$C$e#z#+ A#`#d$i@D$E$h$F$G$H$I$J$K$L$E#{#%$x+M$p@x+w+~@9@T+6+{@N$O$P$Q$R$S$(+- ",
"T$U$V$W$X$Y$M@Z#z#+ A#`#d$i@D$E$h$F$G$@+Z$`$E# %Q+{#%$x+M$M#Z@u+T+V+.%G@+%@%O$#%$%0#%%&%- ",
"*%=%-%;%>%,%Y#Z#z#+ A#`#d$i@D$E$'%F$G$)%!%~%l#Q+Q+{#%$(#X@p@p@M${%M$M#p@]%@%O$^%/%(%_%Z.- ",
"  z :%<%[%L@Y#Z#z#+ A#B#}%i@|%1%2%3%4%5%6%7%8%9%Q+{#0%9@y+W@W@W@W@a%Z@M#M#@%b%c%d%e%f%2 - ",
"  g%U h%i%-#Y#Z#z#+ j%k%l%e$|%;#m%n%o%p%q%r%s%t%Q+Q+u%4+R.S.S.S.S.v%/#]%M#B@w%*.x%y%R#2 - ",
"  g%V z%A%-#Y#Z#z#+ $%B%C%D%D$E%5@n%o%p%F%G%H%t%Q+Q+I%7$$+$+$+$+4+M./#p@M#J%K%L%D+J@M%2 - ",
"*%N%O%P%y Q%R%S%T%+ + U%V%W%X%4@5@Y%G$p%Z%`% &t%Q+Q+I%F+S.K$.&+&@&m$u+p@M##&$&%&&&| 1 2 - ",
"*&E.b$=&-&;&Q+>&,&'&)&!&u#~&|%{&]&< ^&/&Z%`%(&9%Q+Q+I%_&_+:&<&Q+Q++&[&X@M#}&$&I@..|&1 2 - ",
"#+1&2&3&4.}$<&4&5&6&7&8&9&x#|%0&a&b&c&d&Z%`%e&f&{#Q+u%J$u%<&Q+Q+{#@&C@.%1$g&h&i&j&k&l&2 - ",
"z+m&n&o&p&q&Q+r&s&t&o%u&L@v&D$w&x&y&@.Q%Z%`%z&A&B&C&u%D&!%{#Q+Q+{#E&s+9+F@6+F&G&H&I&H$w$A#",
"J&K&L&M&_%d&{#Q+%.&.y y p%N&D$O&` 1 b.Q%Z%P&Q&D$R&S&u%J$T&U&Q+Q+Q+`$#+$+$+S.V&W&X&Y&Z&6$; ",
"T$`& *.*+*@*{##*$*N b.k&%*x#D$s%&*1 b.Q%Z%D$**D$=*S&`$)#-*Q+Q+Q+Q+`$#+$+$+R.;*>*,*'*)*&%- ",
"k$!*~*{*]*^*{##*$*@./*(*u$~&D$s%&*1 b.Q%Z%D$**D$=*_* %:*~#Q+Q+Q+Q+`$#+$+$+%+&+<*[*}*|*&%- ",
"F+1*t@2*3*^*Q+k#4*5*^.6*7*R%8*9*` 0*a*p%b*8*c*d*e*f*E#Q+g*h*i*i*j*.&1+k*k*o$l*m*n*o*p*%#- ",
"+@s@b.x q*r*3&s*t*u*u*v*w*u*x*y*z*A*B*C*x*x*v*x*u*u*D*E*F*u*G*G*u*H*I*J*K*L*M*N*O*P*1 2 - ",
"+@s@@.Q*R*S*T*U*V*W*W*W*W*X*Y*6*Z*`* =.=W*W*W*W*W*V*+=@=#=V*$=$=$=%=.=&=*===-=;=O*}.>=2 - ",
"+@s@K@x ,='=)=!=~=0 0 {=]=^=/=(=_=:=<=[=h#}=|={=^=0 1=)=2=3=0 0 0 4=: 5=6=7=8=9=W e%,$c - ",
"+@H$b.N N @*0=a=V b=c=d=+ + e=f=3&g=h=i=j=k=.*l=$%4 m=n=o=p=O*W W k=q=r=l&-&s=t=u=v=w=x=- ",
"F+y=8.l&8.)%z=A=e%>$B=C=d=-+D=E=F=G=l&H=I=e%J=K=L=M=N=O=P=Q=R=S=S=T=U=V=l&W=X=Y=Z=`='+ -* ",
"F&.-s.+-s.@-#-$-%-$-&-*-=---;->-,-'-s.v.%-)-!-~-{-]-^-/-(-_-:-<-[-[-)-'-n.}-!#|-1-l.2-3-- ",
"A+4-4-4-4-4-4-4-4-4-4-5-6-6-5-7-4-4-4-4-4-4-8-5-6-5-8-4-8-8-4-4-4-4-4-4-4-4-4-8-5-9-5-0-- ",
"; ; ; ; ; ; ; ; ; ; ; ; ; ; ; ; ; ; ; ; ; ; ; ; ; ; ; ; ; ; ; ; ; ; ; ; ; ; ; ; ; ; ; - + "};
