/* XPM */
static char * MC_xpm[] = {
"45 45 721 2",
"  	c #FFFFFF",
". 	c #FDFDFD",
"+ 	c #FCFCFC",
"@ 	c #839DAC",
"# 	c #9EAEB9",
"$ 	c #888888",
"% 	c #7F7F7F",
"& 	c #939393",
"* 	c #D8D8D8",
"= 	c #B0B0B0",
"- 	c #B1B1B1",
"; 	c #698FA1",
"> 	c #9BB7C4",
", 	c #6F8493",
"' 	c #A0A0A0",
") 	c #BEBEBE",
"! 	c #D1D1D1",
"~ 	c #D6D6D6",
"{ 	c #F3F3F3",
"] 	c #E6E6E6",
"^ 	c #A8A8A8",
"/ 	c #B2B2B2",
"( 	c #222222",
"_ 	c #1F1F1F",
": 	c #1E1E1E",
"< 	c #272727",
"[ 	c #2B2B2B",
"} 	c #282828",
"| 	c #6F93A5",
"1 	c #648192",
"2 	c #191919",
"3 	c #020202",
"4 	c #D9D9D9",
"5 	c #E7E7E7",
"6 	c #F8F8F8",
"7 	c #F6F6F6",
"8 	c #F4F4F4",
"9 	c #CDCDCD",
"0 	c #1B1B1B",
"a 	c #040404",
"b 	c #000000",
"c 	c #101010",
"d 	c #181818",
"e 	c #0F0F0F",
"f 	c #B6B6B6",
"g 	c #424242",
"h 	c #444444",
"i 	c #454545",
"j 	c #414141",
"k 	c #2E2E2E",
"l 	c #5A727A",
"m 	c #52646C",
"n 	c #B9B9B9",
"o 	c #EEEEEE",
"p 	c #F0F0F0",
"q 	c #D5D5D5",
"r 	c #6F6F6F",
"s 	c #404040",
"t 	c #3C3C3C",
"u 	c #252525",
"v 	c #1D1D1D",
"w 	c #171717",
"x 	c #080808",
"y 	c #353535",
"z 	c #434343",
"A 	c #343434",
"B 	c #232323",
"C 	c #202020",
"D 	c #474747",
"E 	c #484848",
"F 	c #464646",
"G 	c #5E757E",
"H 	c #C9C9C9",
"I 	c #C7C7C7",
"J 	c #D2D2D2",
"K 	c #E2E2E2",
"L 	c #E1E1E1",
"M 	c #DADADA",
"N 	c #E4E4E4",
"O 	c #DFDFDF",
"P 	c #989898",
"Q 	c #303030",
"R 	c #313131",
"S 	c #2D2D2D",
"T 	c #111111",
"U 	c #373737",
"V 	c #566770",
"W 	c #B5B5B5",
"X 	c #AAAAAA",
"Y 	c #BCB9B8",
"Z 	c #AB9D96",
"` 	c #ACACAC",
" .	c #CBCBCB",
"..	c #A9A8A6",
"+.	c #B0A298",
"@.	c #B4B4B3",
"#.	c #B7B7B7",
"$.	c #292929",
"%.	c #333333",
"&.	c #2C2C2C",
"*.	c #3E3E3E",
"=.	c #212121",
"-.	c #494A51",
";.	c #868686",
">.	c #A3A3A2",
",.	c #7B7575",
"'.	c #C8CCD1",
").	c #BB9D8B",
"!.	c #A38877",
"~.	c #CAA489",
"{.	c #979493",
"].	c #A7A7A7",
"^.	c #808080",
"/.	c #393939",
"(.	c #383838",
"_.	c #3B3B3B",
":.	c #2A2A2A",
"<.	c #3D3D3D",
"[.	c #758693",
"}.	c #5F6267",
"|.	c #787A7C",
"1.	c #997C6B",
"2.	c #B0A7A1",
"3.	c #CDB5A1",
"4.	c #F3D9C0",
"5.	c #BF9A80",
"6.	c #825E4C",
"7.	c #646464",
"8.	c #838080",
"9.	c #636261",
"0.	c #B4B4B4",
"a.	c #1A1A1A",
"b.	c #4E5B67",
"c.	c #607683",
"d.	c #A49188",
"e.	c #E4C9B0",
"f.	c #D9B69B",
"g.	c #DFBFA6",
"h.	c #55525F",
"i.	c #4D556B",
"j.	c #513B42",
"k.	c #8F4645",
"l.	c #522619",
"m.	c #2F2F2F",
"n.	c #121212",
"o.	c #B3B3B3",
"p.	c #0D0D0D",
"q.	c #0C0C0C",
"r.	c #090909",
"s.	c #010101",
"t.	c #90A9B8",
"u.	c #617684",
"v.	c #6F8F9F",
"w.	c #67757E",
"x.	c #5A4D4A",
"y.	c #C4A28A",
"z.	c #AA8871",
"A.	c #5B4B4C",
"B.	c #4B4B5D",
"C.	c #9D4A49",
"D.	c #C2696F",
"E.	c #99433F",
"F.	c #C8878D",
"G.	c #A86366",
"H.	c #8F5051",
"I.	c #0A0A0A",
"J.	c #242424",
"K.	c #030303",
"L.	c #859DAB",
"M.	c #316CAE",
"N.	c #67424C",
"O.	c #6C2B21",
"P.	c #4E2B32",
"Q.	c #342D32",
"R.	c #4D4438",
"S.	c #424959",
"T.	c #683A3F",
"U.	c #943C36",
"V.	c #8A403D",
"W.	c #AD4B4A",
"X.	c #B55F62",
"Y.	c #C9787E",
"Z.	c #C2585A",
"`.	c #5B291F",
" +	c #050505",
".+	c #5E7787",
"++	c #2482D8",
"@+	c #71353D",
"#+	c #6F2D23",
"$+	c #522625",
"%+	c #2C2F3B",
"&+	c #3E4047",
"*+	c #4A3842",
"=+	c #994542",
"-+	c #C67379",
";+	c #AB4E4D",
">+	c #B45354",
",+	c #81342D",
"'+	c #BB4F4E",
")+	c #AC4642",
"!+	c #57261A",
"~+	c #2E5F9F",
"{+	c #6F3130",
"]+	c #6A2A20",
"^+	c #792925",
"/+	c #50323C",
"(+	c #53303B",
"_+	c #A52C2B",
":+	c #943C35",
"<+	c #B24947",
"[+	c #A95153",
"}+	c #943E3A",
"|+	c #742E26",
"1+	c #89352D",
"2+	c #933C37",
"3+	c #703A3F",
"4+	c #535366",
"5+	c #161616",
"6+	c #313547",
"7+	c #373D50",
"8+	c #422D32",
"9+	c #86342C",
"0+	c #60281E",
"a+	c #A32A2D",
"b+	c #54373C",
"c+	c #9D8B8D",
"d+	c #852E2B",
"e+	c #8D372F",
"f+	c #C05D60",
"g+	c #743029",
"h+	c #5A2820",
"i+	c #593236",
"j+	c #494B5D",
"k+	c #686B82",
"l+	c #5A5F75",
"m+	c #242737",
"n+	c #232535",
"o+	c #070707",
"p+	c #0E0E0E",
"q+	c #363636",
"r+	c #303343",
"s+	c #484F62",
"t+	c #42353F",
"u+	c #5D2921",
"v+	c #63261E",
"w+	c #A1292D",
"x+	c #4F2E2D",
"y+	c #7E4B4D",
"z+	c #6F2D25",
"A+	c #772F27",
"B+	c #A4423D",
"C+	c #9A3D36",
"D+	c #6C2C25",
"E+	c #472D33",
"F+	c #444A5B",
"G+	c #4F576F",
"H+	c #4F576D",
"I+	c #353B4B",
"J+	c #2A303F",
"K+	c #262626",
"L+	c #131313",
"M+	c #343A4A",
"N+	c #323949",
"O+	c #33313E",
"P+	c #7D2623",
"Q+	c #BB333C",
"R+	c #7B4C50",
"S+	c #BD6F6F",
"T+	c #682B23",
"U+	c #923A32",
"V+	c #943A32",
"W+	c #83312A",
"X+	c #622B2B",
"Y+	c #2D3544",
"Z+	c #353D4D",
"`+	c #3C4353",
" @	c #343948",
".@	c #2E3545",
"+@	c #252838",
"@@	c #141414",
"#@	c #323232",
"$@	c #0B0B0B",
"%@	c #2A2C37",
"&@	c #2D3240",
"*@	c #3D2C32",
"=@	c #A02A2D",
"-@	c #7F3032",
";@	c #4F4547",
">@	c #9E5A5B",
",@	c #6C2B24",
"'@	c #87342C",
")@	c #803028",
"!@	c #7D2F27",
"~@	c #432426",
"{@	c #2D3343",
"]@	c #2A2D39",
"^@	c #34332B",
"/@	c #444234",
"(@	c #2A272B",
"_@	c #151515",
":@	c #1C1C1C",
"<@	c #393629",
"[@	c #3D3D31",
"}@	c #452A21",
"|@	c #AF2D31",
"1@	c #8D3035",
"2@	c #635256",
"3@	c #BC7C7C",
"4@	c #732D25",
"5@	c #67271B",
"6@	c #2B282B",
"7@	c #534F40",
"8@	c #645C4D",
"9@	c #3B382B",
"0@	c #3F3F3F",
"a@	c #433E32",
"b@	c #3A3A3A",
"c@	c #3D382C",
"d@	c #504C3C",
"e@	c #454434",
"f@	c #54281E",
"g@	c #AB292F",
"h@	c #5C292A",
"i@	c #593C3E",
"j@	c #A14548",
"k@	c #762E27",
"l@	c #8E372F",
"m@	c #788994",
"n@	c #5B7183",
"o@	c #3A362A",
"p@	c #746D5D",
"q@	c #696151",
"r@	c #3E3D2E",
"s@	c #393429",
"t@	c #474235",
"u@	c #595343",
"v@	c #50261D",
"w@	c #AA2A2E",
"x@	c #742827",
"y@	c #87282A",
"z@	c #C12D30",
"A@	c #7A2C29",
"B@	c #A04038",
"C@	c #8498A5",
"D@	c #8CB6C9",
"E@	c #3A362B",
"F@	c #6E6758",
"G@	c #655D4D",
"H@	c #494537",
"I@	c #4D4B3B",
"J@	c #423C2D",
"K@	c #55272A",
"L@	c #6D2724",
"M@	c #625054",
"N@	c #512F31",
"O@	c #96292D",
"P@	c #662925",
"Q@	c #9C3E38",
"R@	c #A5433C",
"S@	c #7C3F3B",
"T@	c #B9CED7",
"U@	c #87A2B0",
"V@	c #363127",
"W@	c #5A5445",
"X@	c #545040",
"Y@	c #383528",
"Z@	c #403F31",
"`@	c #434333",
" #	c #3E2D1E",
".#	c #7F3240",
"+#	c #672B31",
"@#	c #6C3C47",
"##	c #673F48",
"$#	c #682D33",
"%#	c #6B2D35",
"&#	c #963D38",
"*#	c #BD4E4E",
"=#	c #A3423C",
"-#	c #828387",
";#	c #D7DCDF",
">#	c #535054",
",#	c #454435",
"'#	c #404131",
")#	c #322D22",
"!#	c #79614D",
"~#	c #73604C",
"{#	c #3E221E",
"]#	c #953848",
"^#	c #863544",
"/#	c #662A36",
"(#	c #632A35",
"_#	c #933949",
":#	c #923747",
"<#	c #7E3433",
"[#	c #BF4F4F",
"}#	c #C05050",
"|#	c #833933",
"1#	c #A6B6BC",
"2#	c #CBC9C8",
"3#	c #A58F79",
"4#	c #A9876D",
"5#	c #494949",
"6#	c #605241",
"7#	c #785944",
"8#	c #56262B",
"9#	c #AC3F51",
"0#	c #99394A",
"a#	c #712E3C",
"b#	c #592731",
"c#	c #A33C4E",
"d#	c #A63C4F",
"e#	c #803137",
"f#	c #B54B4A",
"g#	c #6F5D60",
"h#	c #767F80",
"i#	c #5D5747",
"j#	c #544A39",
"k#	c #3B352A",
"l#	c #605A4A",
"m#	c #5A4E40",
"n#	c #5F2834",
"o#	c #9D3C4C",
"p#	c #983A4A",
"q#	c #6C2C39",
"r#	c #51252D",
"s#	c #863444",
"t#	c #A93D50",
"u#	c #83323E",
"v#	c #9C403C",
"w#	c #B64C4C",
"x#	c #6A6153",
"y#	c #7C7565",
"z#	c #716959",
"A#	c #514A3E",
"B#	c #3A3329",
"C#	c #5E5949",
"D#	c #4A3E33",
"E#	c #452B33",
"F#	c #7E3744",
"G#	c #7A3241",
"H#	c #6E2D3A",
"I#	c #47232B",
"J#	c #712E3B",
"K#	c #9F3B4D",
"L#	c #813342",
"M#	c #BE4F4F",
"N#	c #8C433F",
"O#	c #686151",
"P#	c #6D6657",
"Q#	c #6A6353",
"R#	c #5C5952",
"S#	c #B4C8D2",
"T#	c #4B4638",
"U#	c #44312A",
"V#	c #3F3136",
"W#	c #404143",
"X#	c #282B31",
"Y#	c #37252B",
"Z#	c #312227",
"`#	c #5F2934",
" $	c #813343",
".$	c #712E39",
"+$	c #AA4644",
"@$	c #B04B4A",
"#$	c #543A30",
"$$	c #5E5A4B",
"%$	c #504D3D",
"&$	c #777977",
"*$	c #91AFBF",
"=$	c #392C21",
"-$	c #482724",
";$	c #6A303C",
">$	c #5E2C37",
",$	c #42262C",
"'$	c #42252A",
")$	c #372324",
"!$	c #4E2527",
"~$	c #803242",
"{$	c #A94050",
"]$	c #8C3646",
"^$	c #7F3435",
"/$	c #BF504F",
"($	c #B84D4D",
"_$	c #8F423E",
":$	c #7B3C36",
"<$	c #939297",
"[$	c #C7CACC",
"}$	c #482523",
"|$	c #3B393B",
"1$	c #454345",
"2$	c #312B31",
"3$	c #2C252B",
"4$	c #3F2422",
"5$	c #562721",
"6$	c #662B38",
"7$	c #9C3C4C",
"8$	c #993B4B",
"9$	c #742F3B",
"0$	c #A84643",
"a$	c #BA4D4C",
"b$	c #924743",
"c$	c #D5D9DC",
"d$	c #D6D9DC",
"e$	c #8CA6B3",
"f$	c #472215",
"g$	c #4D2522",
"h$	c #6D2E3B",
"i$	c #6A303D",
"j$	c #5D2B36",
"k$	c #472429",
"l$	c #4C2621",
"m$	c #582820",
"n$	c #532725",
"o$	c #742F3E",
"p$	c #A23C4E",
"q$	c #A83D50",
"r$	c #7F3535",
"s$	c #B04845",
"t$	c #8B5450",
"u$	c #E0DEDE",
"v$	c #B0C1CC",
"w$	c #492317",
"x$	c #4E2523",
"y$	c #A03D4D",
"z$	c #783040",
"A$	c #5E2832",
"B$	c #542721",
"C$	c #572820",
"D$	c #4D242A",
"E$	c #8E3645",
"F$	c #9A3A4B",
"G$	c #7A313D",
"H$	c #A74543",
"I$	c #B84C4A",
"J$	c #A1403A",
"K$	c #927876",
"L$	c #AABCC7",
"M$	c #060606",
"N$	c #4F2523",
"O$	c #793040",
"P$	c #8A3646",
"Q$	c #883545",
"R$	c #612933",
"S$	c #4C2425",
"T$	c #502623",
"U$	c #7D3140",
"V$	c #9A3A4A",
"W$	c #7C3433",
"X$	c #B24946",
"Y$	c #A9453F",
"Z$	c #94382F",
"`$	c #615459",
" %	c #56261B",
".%	c #542624",
"+%	c #7C313F",
"@%	c #A53F4F",
"#%	c #893545",
"$%	c #632932",
"%%	c #4D2526",
"&%	c #56272E",
"*%	c #913848",
"=%	c #BA3F56",
"-%	c #77303A",
";%	c #A84543",
">%	c #B74C4A",
",%	c #9C3E36",
"'%	c #792F26",
")%	c #61291F",
"!%	c #592725",
"~%	c #632933",
"{%	c #823342",
"]%	c #692B36",
"^%	c #55252E",
"/%	c #4F2526",
"(%	c #803342",
"_%	c #A93E50",
":%	c #80333F",
"<%	c #793331",
"[%	c #BE4F4E",
"}%	c #9E3F38",
"|%	c #913831",
"1%	c #62281E",
"2%	c #492215",
"3%	c #792E26",
"4%	c #562723",
"5%	c #513135",
"6%	c #5A2B31",
"7%	c #552931",
"8%	c #31252B",
"9%	c #532720",
"0%	c #4C252B",
"a%	c #5C2D34",
"b%	c #4A3A3C",
"c%	c #3E2F30",
"d%	c #AD4745",
"e%	c #AE4743",
"f%	c #823129",
"g%	c #7A2F27",
"h%	c #482215",
"i%	c #56251A",
"j%	c #7E3028",
"k%	c #522621",
"l%	c #4A4B4B",
"m%	c #444545",
"n%	c #2E2E33",
"o%	c #352526",
"p%	c #4B2620",
"q%	c #313133",
"r%	c #423F40",
"s%	c #923E3C",
"t%	c #8A352D",
"u%	c #7F3028",
"v%	c #52261B",
"w%	c #6D2B22",
"x%	c #782E26",
"y%	c #492520",
"z%	c #4E4E4E",
"A%	c #2D2E32",
"B%	c #432523",
"C%	c #492824",
"D%	c #7B3630",
"E%	c #BC4E4D",
"F%	c #83342C",
"G%	c #57271F",
"H%	c #512519",
"I%	c #6F2C24",
"J%	c #4A2520",
"K%	c #2C2D31",
"L%	c #4F2620",
"M%	c #562820",
"N%	c #342729",
"O%	c #343436",
"P%	c #4A302F",
"Q%	c #BB4E4E",
"R%	c #B54B48",
"S%	c #83332B",
"T%	c #712D25",
"U%	c #52261C",
"V%	c #6E2B22",
"W%	c #65291F",
"X%	c #54251A",
"Y%	c #442621",
"Z%	c #30282B",
"`%	c #552720",
" &	c #54271E",
".&	c #39231F",
"+&	c #29292F",
"@&	c #48302F",
"#&	c #B84C4B",
"$&	c #81332B",
"%&	c #5D2920",
"&&	c #50251A",
"*&	c #452113",
"=&	c #462215",
"-&	c #2F3030",
";&	c #3A3A3B",
">&	c #2F2528",
",&	c #51261D",
"'&	c #4B2418",
")&	c #242429",
"!&	c #43282B",
"~&	c #A84540",
"{&	c #983C34",
"]&	c #50251B",
"^&	c #484A4A",
"/&	c #4B4B4B",
"(&	c #2C2C30",
"_&	c #412729",
":&	c #9C3F36",
"<&	c #80332B",
"[&	c #55261D",
"}&	c #4A2317",
"|&	c #525252",
"1&	c #565656",
"2&	c #636363",
"3&	c #6A6A6A",
"4&	c #676767",
"5&	c #5D5D5D",
"6&	c #595959",
"7&	c #5A5A5A",
"8&	c #424444",
"9&	c #636A6A",
"0&	c #505050",
"a&	c #3E3E3F",
"b&	c #27272E",
"c&	c #696969",
"d&	c #626262",
"e&	c #555555",
"f&	c #585858",
"g&	c #606060",
"h&	c #422B2A",
"i&	c #702F26",
"j&	c #3B2524",
"k&	c #2D2221",
"l&	c #666666",
"m&	c #575757",
"n&	c #545454",
"o&	c #FEFEFE",
"p&	c #ECECEC",
"q&	c #DCDCDC",
"r&	c #DEDEDE",
"s&	c #DDDDDD",
"t&	c #3A3A3D",
"u&	c #4E5355",
"v&	c #4C5052",
"w&	c #414143",
"x&	c #323235",
"y&	c #303033",
"z&	c #2C2C2F",
"A&	c #282829",
"B&	c #413D3C",
"C&	c #2F2F34",
"D&	c #232327",
"E&	c #565959",
"F&	c #646B6B",
"G&	c #4D4E4E",
"H&	c #272728",
"I&	c #2C2B2C",
"J&	c #464749",
"K&	c #4B4E4F",
"L&	c #272626",
"  . + + + + + + + + + + + @ # + + + + + + $ % & + + + + + + + + + + + + + + + + + + + .   ",
". * = = = = = = = = = - - ; > , = = = ' ) ! ~ { ] ^ - = = = = = = = = = = = = - - - - * . ",
"+ / ( _ : : : : : : _ < [ } | 1 2 3 ' 4 5 6 7 { 8 9 0 _ _ _ 0 a b b b b c : : 0 d 2 e - + ",
"+ f g h h h h h h h h h i j k l m & n o p 7 7 7 o q r s g g t u v w x v y z z A B C 2 - + ",
"+ f i D D D D D D D D D E F s h G H I J K L M N O J P Q R R S B C d T y z D D g U B d - + ",
"+ f i D E E E E E E E E E E E g V W X Y Z `  ...+.@.#.: : $.%.y y &._ *.E D D E g A =.- + ",
"+ f z z g z z z z z z z z z g A -.& ;.>.,.'.).!.~.{.].^.$./.i g g (.} _.z z F D D h :.- + ",
"+ f <.k :.:.:.:.:.:.:.:.:.:.:.u [.}.|.1.2.3.4.5.6.7.8.9.j h g Q :.< ( } :.R z D D h :.- + ",
"+ 0.[ C : a.T c c c T T T T T a.C b.c.d.e.f.g.h.i.j.k.l.Q m.:.w e T n.T e 2 &.%.y %.=.- + ",
"+ o.:.S u 2 p.q.p.r.s.b b b b T t.u.v.w.x.y.z.A.B.C.D.E.F.G.H.T q.q.q.q.q.I.p.J.k k $.o.+ ",
"+ f g g k : : : : 2 a b b b b K.L.M.N.O.P.Q.R.S.T.U.V.W.X.Y.Z.`.v : : : C ( J./.h h j f + ",
"+ f i i Q _ C C =.0  +b b b b b .+++@+#+$+%+&+*+=+-+;+>+,+'+)+!+: C C C Q <.*.h D D i f + ",
"+ 0.(./.$._ C C C a. +b b b b b b ~+{+]+^+/+(+_+:+<+[+}+|+1+2+3+4+S a.5+$.U (.g E D i f + ",
"+ / _ $.$.u C C C a. +b b b b 6+7+8+9+0+a+b+c+d+e+2+f+g+h+i+j+k+l+m+n+o+q.p+n.%.g z s f + ",
"+ - < *.j q+( C C a. +b b b b r+s+t+u+v+w+x+y+z+A+B+C+D+E+F+G+H+I+J+v 0 0 0 0 v B :.K+/ + ",
"+ 0.y (.(.Q C 5+L+p+b p.p.b b b M+N+O+P+Q+R+S+T+U+V+W+X+Y+Z+`+ @.@+@@@@@@@L+T a s.p.b = + ",
"+ W #@_ 2 0 2 e I.L+=.:.J.p.$@ +%@&@*@=@-@;@>@,@'@)@!@~@{@]@^@/@(@K.I.I.I.n._ w _@=.:@/ + ",
"+ - x T c p.p.0 _ S s h /.B : T <@[@}@|@1@2@3@4@)@)@5@D h 6@7@8@9@c C ( _ } t Q &.0@a@W + ",
"+ - : U b@k a._ #@s D E h b@} c@d@e@f@g@h@i@j@k@l@)@m@n@E o@p@q@r@=._.<.R u m.$.< R s@o.+ ",
"+ - :.i E s %.%.0@D D D E z [ t@u@r@v@w@x@y@z@A@B@l@C@D@t E@F@G@r@< i E 0@Q ( : _ : 5+- + ",
"+ / m.i D F F F F D D D D h Q H@I@J@K@L@M@N@O@P@Q@R@S@T@U@V@W@X@Y@S i D D j k < < < ( / + ",
"+ W 0@F D D D D D D D D D F g Z@`@ #.#+#@###$#%#&#*#=#-#;#>#,#'#)#j F D D F g s s s <.W + ",
"+ 0.y (.(.(.(.(.U t F E E E E !#~#{#]#^#/#(#_#:#<#[#}#|#1#2#3#4#Q *.D E E E E 5#h b@A 0.+ ",
"+ - L+:@:@:@:@:@a.$.*.j s s s 6#7#8#9#0#a#b#c#d#e#f#}#<+g#h#i#j#C k 0@j 0@*.*.0@q+C w - + ",
"+ = b x x x x x o+_@u } } :.k#l#m#n#o#p#q#r#s#t#u#v#}#w#x#y#z#A#_ B $.} =.d 5+w L+p.n.- + ",
"+ - p.d d d d d w 2 : : &._.B#C#D#E#F#G#H#I#J#K#L#<#M#N#O#P#Q#R#S#J.U } a.L+3 q._@w 5+- + ",
"+ - 2 C C C _ C [ &.: [ t F s T#U#V#W#X#Y#Z#`# $p#.$+$@$#$$$%$&$*$y h /.[ v $@u #@Q _ - + ",
"+ - 2 C C B K+} _._.a.y h s &.=$-$;$>$,$'$)$!$~${$]$^$/$($_$:$<$[$F F z q+v p.y F z S / + ",
"+ - 2 C C Q 0@s i <.5+B k [ B : }$|$1$2$3$4$5$6$7$8$9$0$}#}#a$b$c$d$e$q+} :@p+q+E D 0@W + ",
"+ 0.A U q+*.D D *.[ q.p.n.0 #@f$g$h$i$j$k$l$m$n$o$p$q$r$[#}#}#s$t$u$v$< _ :@p+U E E i f + ",
"+ W s F D D D D R r.s.b b @@U w$x$o#y$z$A$B$m$C$D$E$F$G$H$}#}#I$J$K$L$0 0 w $@m.s j *.W + ",
"+ / k h F F F i A w M$s.s.M$5+w$N$O$P$Q$R$S$m$m$T$/#U$V$W$M#}#X$Y$Z$`$e e q. +T : < ( / + ",
"+ = T $.[ :.:.:.: T _@5+5+5+@@ %.%+%@%#%$%%%m$m$m$&%*%=%-%;%}#>%B@,%'%U (.%._ _@L+e b = + ",
"+ = b e =.} < < < :.Q R R R R )%!%~%{%]%^%B$m$m$m$/%(%_%:%<%[%[#}%|%'@1%h b@K+C :@e b = + ",
"+ = b =.b@g g h i i i i i i 2%3%4%5%6%7%8%9%m$m$m$m$0%a%b%c%d%}#e%e+f%g%h%J.=.C ( J._ / + ",
"+ = b C [ k %.z E D D D D D i%j%k%l%m%n%o%C$m$m$m$m$p%q%E r%s%}#X$t%)@u%v%C C _ &.*.<.W + ",
"+ = b : _ : J.y /./.b@h z b@w%x%y%5#z%A%B%m$m$m$m$m$m$C%q+m%D%[#E%F%g%3%G%C C _ Q F F f + ",
"+ = a _ C C C =._ v =.U q+H%u%I%J%z 5#K%L%m$m$m$m$m$m$M%N%O%P%Q%R%S%T%I%U%:@:@0 [ 0@0@W + ",
"+ - 5+C C _ _ _ _@o+I.5+_@V%W%X%Y%j <.Z%`%m$m$m$m$m$m$ &.&+&@&#&B@$&%&&&r.r.x o+w < J./ + ",
"+ - a._ 5+p+e c x o+_@_@*&=&5+5+-&i ;&>&,&C$m$m$ &U%'&d @@)&!&~&{&4@]&_@_@T a p+2 : d - + ",
"+ = b b $@@@p.b b b b  +a a  +b@^&/&E (&( f$f$f$b b L+( B B _&:&<&[&}&B J.0 b b  +3 b = + ",
"+ n |&1&2&3&4&5&1&1&6&7&7&7&8&9&9&0&a&b&c&c&d&6&e&f&g&c&3&c&h&i&j&k&c&c&3&l&f&m&7&7&n&n + ",
"o&p&q&q&r&O r&s&q&q&q&q&q&t&u&v&w&x&y&z&r&r&s&q&q&q&s&r&r&A&B&g C&D&r&r&r&r&q&q&q&q&q&p&o&",
"                          %././.y $.                      k E&F&G&H&                      ",
"                                                          I&J&K&W#L&                      "};
