/* XPM */
static char * MC1_xpm[] = {
"45 45 721 2",
"  	c #FFFFFF",
". 	c #FDFDFD",
"+ 	c #FCFCFC",
"@ 	c #939393",
"# 	c #7F7F7F",
"$ 	c #888888",
"% 	c #9EAEB9",
"& 	c #839DAC",
"* 	c #D8D8D8",
"= 	c #B1B1B1",
"- 	c #B0B0B0",
"; 	c #A8A8A8",
"> 	c #E6E6E6",
", 	c #F3F3F3",
"' 	c #D6D6D6",
") 	c #D1D1D1",
"! 	c #BEBEBE",
"~ 	c #A0A0A0",
"{ 	c #6F8493",
"] 	c #9BB7C4",
"^ 	c #698FA1",
"/ 	c #0F0F0F",
"( 	c #191919",
"_ 	c #181818",
": 	c #1B1B1B",
"< 	c #1E1E1E",
"[ 	c #101010",
"} 	c #000000",
"| 	c #040404",
"1 	c #1F1F1F",
"2 	c #CDCDCD",
"3 	c #F4F4F4",
"4 	c #F6F6F6",
"5 	c #F8F8F8",
"6 	c #E7E7E7",
"7 	c #D9D9D9",
"8 	c #020202",
"9 	c #648192",
"0 	c #6F93A5",
"a 	c #282828",
"b 	c #2B2B2B",
"c 	c #272727",
"d 	c #222222",
"e 	c #B2B2B2",
"f 	c #202020",
"g 	c #232323",
"h 	c #343434",
"i 	c #434343",
"j 	c #353535",
"k 	c #1D1D1D",
"l 	c #080808",
"m 	c #171717",
"n 	c #252525",
"o 	c #3C3C3C",
"p 	c #424242",
"q 	c #404040",
"r 	c #6F6F6F",
"s 	c #D5D5D5",
"t 	c #EEEEEE",
"u 	c #F0F0F0",
"v 	c #B9B9B9",
"w 	c #52646C",
"x 	c #5A727A",
"y 	c #2E2E2E",
"z 	c #414141",
"A 	c #454545",
"B 	c #444444",
"C 	c #B6B6B6",
"D 	c #373737",
"E 	c #474747",
"F 	c #111111",
"G 	c #2D2D2D",
"H 	c #313131",
"I 	c #303030",
"J 	c #989898",
"K 	c #D2D2D2",
"L 	c #DFDFDF",
"M 	c #E4E4E4",
"N 	c #DADADA",
"O 	c #E1E1E1",
"P 	c #E2E2E2",
"Q 	c #C7C7C7",
"R 	c #C9C9C9",
"S 	c #5E757E",
"T 	c #464646",
"U 	c #484848",
"V 	c #212121",
"W 	c #3E3E3E",
"X 	c #2C2C2C",
"Y 	c #333333",
"Z 	c #292929",
"` 	c #B7B7B7",
" .	c #B4B4B3",
"..	c #B0A298",
"+.	c #A9A8A6",
"@.	c #CBCBCB",
"#.	c #ACACAC",
"$.	c #AB9D96",
"%.	c #BCB9B8",
"&.	c #AAAAAA",
"*.	c #B5B5B5",
"=.	c #566770",
"-.	c #2A2A2A",
";.	c #3B3B3B",
">.	c #383838",
",.	c #393939",
"'.	c #808080",
").	c #A7A7A7",
"!.	c #979493",
"~.	c #CAA489",
"{.	c #A38877",
"].	c #BB9D8B",
"^.	c #C8CCD1",
"/.	c #7B7575",
"(.	c #A3A3A2",
"_.	c #868686",
":.	c #494A51",
"<.	c #636261",
"[.	c #838080",
"}.	c #646464",
"|.	c #825E4C",
"1.	c #BF9A80",
"2.	c #F3D9C0",
"3.	c #CDB5A1",
"4.	c #B0A7A1",
"5.	c #997C6B",
"6.	c #787A7C",
"7.	c #5F6267",
"8.	c #758693",
"9.	c #3D3D3D",
"0.	c #121212",
"a.	c #2F2F2F",
"b.	c #522619",
"c.	c #8F4645",
"d.	c #513B42",
"e.	c #4D556B",
"f.	c #55525F",
"g.	c #DFBFA6",
"h.	c #D9B69B",
"i.	c #E4C9B0",
"j.	c #A49188",
"k.	c #607683",
"l.	c #4E5B67",
"m.	c #1A1A1A",
"n.	c #B4B4B4",
"o.	c #B3B3B3",
"p.	c #242424",
"q.	c #0D0D0D",
"r.	c #0A0A0A",
"s.	c #0C0C0C",
"t.	c #8F5051",
"u.	c #A86366",
"v.	c #C8878D",
"w.	c #99433F",
"x.	c #C2696F",
"y.	c #9D4A49",
"z.	c #4B4B5D",
"A.	c #5B4B4C",
"B.	c #AA8871",
"C.	c #C4A28A",
"D.	c #5A4D4A",
"E.	c #67757E",
"F.	c #6F8F9F",
"G.	c #617684",
"H.	c #90A9B8",
"I.	c #010101",
"J.	c #090909",
"K.	c #5B291F",
"L.	c #C2585A",
"M.	c #C9787E",
"N.	c #B55F62",
"O.	c #AD4B4A",
"P.	c #8A403D",
"Q.	c #943C36",
"R.	c #683A3F",
"S.	c #424959",
"T.	c #4D4438",
"U.	c #342D32",
"V.	c #4E2B32",
"W.	c #6C2B21",
"X.	c #67424C",
"Y.	c #316CAE",
"Z.	c #859DAB",
"`.	c #030303",
" +	c #57261A",
".+	c #AC4642",
"++	c #BB4F4E",
"@+	c #81342D",
"#+	c #B45354",
"$+	c #AB4E4D",
"%+	c #C67379",
"&+	c #994542",
"*+	c #4A3842",
"=+	c #3E4047",
"-+	c #2C2F3B",
";+	c #522625",
">+	c #6F2D23",
",+	c #71353D",
"'+	c #2482D8",
")+	c #5E7787",
"!+	c #050505",
"~+	c #161616",
"{+	c #535366",
"]+	c #703A3F",
"^+	c #933C37",
"/+	c #89352D",
"(+	c #742E26",
"_+	c #943E3A",
":+	c #A95153",
"<+	c #B24947",
"[+	c #943C35",
"}+	c #A52C2B",
"|+	c #53303B",
"1+	c #50323C",
"2+	c #792925",
"3+	c #6A2A20",
"4+	c #6F3130",
"5+	c #2E5F9F",
"6+	c #0E0E0E",
"7+	c #070707",
"8+	c #232535",
"9+	c #242737",
"0+	c #5A5F75",
"a+	c #686B82",
"b+	c #494B5D",
"c+	c #593236",
"d+	c #5A2820",
"e+	c #743029",
"f+	c #C05D60",
"g+	c #8D372F",
"h+	c #852E2B",
"i+	c #9D8B8D",
"j+	c #54373C",
"k+	c #A32A2D",
"l+	c #60281E",
"m+	c #86342C",
"n+	c #422D32",
"o+	c #373D50",
"p+	c #313547",
"q+	c #262626",
"r+	c #2A303F",
"s+	c #353B4B",
"t+	c #4F576D",
"u+	c #4F576F",
"v+	c #444A5B",
"w+	c #472D33",
"x+	c #6C2C25",
"y+	c #9A3D36",
"z+	c #A4423D",
"A+	c #772F27",
"B+	c #6F2D25",
"C+	c #7E4B4D",
"D+	c #4F2E2D",
"E+	c #A1292D",
"F+	c #63261E",
"G+	c #5D2921",
"H+	c #42353F",
"I+	c #484F62",
"J+	c #303343",
"K+	c #363636",
"L+	c #131313",
"M+	c #141414",
"N+	c #252838",
"O+	c #2E3545",
"P+	c #343948",
"Q+	c #3C4353",
"R+	c #353D4D",
"S+	c #2D3544",
"T+	c #622B2B",
"U+	c #83312A",
"V+	c #943A32",
"W+	c #923A32",
"X+	c #682B23",
"Y+	c #BD6F6F",
"Z+	c #7B4C50",
"`+	c #BB333C",
" @	c #7D2623",
".@	c #33313E",
"+@	c #323949",
"@@	c #343A4A",
"#@	c #1C1C1C",
"$@	c #151515",
"%@	c #2A272B",
"&@	c #444234",
"*@	c #34332B",
"=@	c #2A2D39",
"-@	c #2D3343",
";@	c #432426",
">@	c #7D2F27",
",@	c #803028",
"'@	c #87342C",
")@	c #6C2B24",
"!@	c #9E5A5B",
"~@	c #4F4547",
"{@	c #7F3032",
"]@	c #A02A2D",
"^@	c #3D2C32",
"/@	c #2D3240",
"(@	c #2A2C37",
"_@	c #0B0B0B",
":@	c #323232",
"<@	c #433E32",
"[@	c #3F3F3F",
"}@	c #3B382B",
"|@	c #645C4D",
"1@	c #534F40",
"2@	c #2B282B",
"3@	c #67271B",
"4@	c #732D25",
"5@	c #BC7C7C",
"6@	c #635256",
"7@	c #8D3035",
"8@	c #AF2D31",
"9@	c #452A21",
"0@	c #3D3D31",
"a@	c #393629",
"b@	c #393429",
"c@	c #3E3D2E",
"d@	c #696151",
"e@	c #746D5D",
"f@	c #3A362A",
"g@	c #5B7183",
"h@	c #788994",
"i@	c #8E372F",
"j@	c #762E27",
"k@	c #A14548",
"l@	c #593C3E",
"m@	c #5C292A",
"n@	c #AB292F",
"o@	c #54281E",
"p@	c #454434",
"q@	c #504C3C",
"r@	c #3D382C",
"s@	c #3A3A3A",
"t@	c #655D4D",
"u@	c #6E6758",
"v@	c #3A362B",
"w@	c #8CB6C9",
"x@	c #8498A5",
"y@	c #A04038",
"z@	c #7A2C29",
"A@	c #C12D30",
"B@	c #87282A",
"C@	c #742827",
"D@	c #AA2A2E",
"E@	c #50261D",
"F@	c #595343",
"G@	c #474235",
"H@	c #383528",
"I@	c #545040",
"J@	c #5A5445",
"K@	c #363127",
"L@	c #87A2B0",
"M@	c #B9CED7",
"N@	c #7C3F3B",
"O@	c #A5433C",
"P@	c #9C3E38",
"Q@	c #662925",
"R@	c #96292D",
"S@	c #512F31",
"T@	c #625054",
"U@	c #6D2724",
"V@	c #55272A",
"W@	c #423C2D",
"X@	c #4D4B3B",
"Y@	c #494537",
"Z@	c #322D22",
"`@	c #404131",
" #	c #454435",
".#	c #535054",
"+#	c #D7DCDF",
"@#	c #828387",
"##	c #A3423C",
"$#	c #BD4E4E",
"%#	c #963D38",
"&#	c #6B2D35",
"*#	c #682D33",
"=#	c #673F48",
"-#	c #6C3C47",
";#	c #672B31",
">#	c #7F3240",
",#	c #3E2D1E",
"'#	c #434333",
")#	c #403F31",
"!#	c #494949",
"~#	c #A9876D",
"{#	c #A58F79",
"]#	c #CBC9C8",
"^#	c #A6B6BC",
"/#	c #833933",
"(#	c #C05050",
"_#	c #BF4F4F",
":#	c #7E3433",
"<#	c #923747",
"[#	c #933949",
"}#	c #632A35",
"|#	c #662A36",
"1#	c #863544",
"2#	c #953848",
"3#	c #3E221E",
"4#	c #73604C",
"5#	c #79614D",
"6#	c #544A39",
"7#	c #5D5747",
"8#	c #767F80",
"9#	c #6F5D60",
"0#	c #B54B4A",
"a#	c #803137",
"b#	c #A63C4F",
"c#	c #A33C4E",
"d#	c #592731",
"e#	c #712E3C",
"f#	c #99394A",
"g#	c #AC3F51",
"h#	c #56262B",
"i#	c #785944",
"j#	c #605241",
"k#	c #514A3E",
"l#	c #716959",
"m#	c #7C7565",
"n#	c #6A6153",
"o#	c #B64C4C",
"p#	c #9C403C",
"q#	c #83323E",
"r#	c #A93D50",
"s#	c #863444",
"t#	c #51252D",
"u#	c #6C2C39",
"v#	c #983A4A",
"w#	c #9D3C4C",
"x#	c #5F2834",
"y#	c #5A4E40",
"z#	c #605A4A",
"A#	c #3B352A",
"B#	c #B4C8D2",
"C#	c #5C5952",
"D#	c #6A6353",
"E#	c #6D6657",
"F#	c #686151",
"G#	c #8C433F",
"H#	c #BE4F4F",
"I#	c #813342",
"J#	c #9F3B4D",
"K#	c #712E3B",
"L#	c #47232B",
"M#	c #6E2D3A",
"N#	c #7A3241",
"O#	c #7E3744",
"P#	c #452B33",
"Q#	c #4A3E33",
"R#	c #5E5949",
"S#	c #3A3329",
"T#	c #91AFBF",
"U#	c #777977",
"V#	c #504D3D",
"W#	c #5E5A4B",
"X#	c #543A30",
"Y#	c #B04B4A",
"Z#	c #AA4644",
"`#	c #712E39",
" $	c #813343",
".$	c #5F2934",
"+$	c #312227",
"@$	c #37252B",
"#$	c #282B31",
"$$	c #404143",
"%$	c #3F3136",
"&$	c #44312A",
"*$	c #4B4638",
"=$	c #C7CACC",
"-$	c #939297",
";$	c #7B3C36",
">$	c #8F423E",
",$	c #B84D4D",
"'$	c #BF504F",
")$	c #7F3435",
"!$	c #8C3646",
"~$	c #A94050",
"{$	c #803242",
"]$	c #4E2527",
"^$	c #372324",
"/$	c #42252A",
"($	c #42262C",
"_$	c #5E2C37",
":$	c #6A303C",
"<$	c #482724",
"[$	c #392C21",
"}$	c #8CA6B3",
"|$	c #D6D9DC",
"1$	c #D5D9DC",
"2$	c #924743",
"3$	c #BA4D4C",
"4$	c #A84643",
"5$	c #742F3B",
"6$	c #993B4B",
"7$	c #9C3C4C",
"8$	c #662B38",
"9$	c #562721",
"0$	c #3F2422",
"a$	c #2C252B",
"b$	c #312B31",
"c$	c #454345",
"d$	c #3B393B",
"e$	c #482523",
"f$	c #B0C1CC",
"g$	c #E0DEDE",
"h$	c #8B5450",
"i$	c #B04845",
"j$	c #7F3535",
"k$	c #A83D50",
"l$	c #A23C4E",
"m$	c #742F3E",
"n$	c #532725",
"o$	c #582820",
"p$	c #4C2621",
"q$	c #472429",
"r$	c #5D2B36",
"s$	c #6A303D",
"t$	c #6D2E3B",
"u$	c #4D2522",
"v$	c #472215",
"w$	c #AABCC7",
"x$	c #927876",
"y$	c #A1403A",
"z$	c #B84C4A",
"A$	c #A74543",
"B$	c #7A313D",
"C$	c #9A3A4B",
"D$	c #8E3645",
"E$	c #4D242A",
"F$	c #572820",
"G$	c #542721",
"H$	c #5E2832",
"I$	c #783040",
"J$	c #A03D4D",
"K$	c #4E2523",
"L$	c #492317",
"M$	c #615459",
"N$	c #94382F",
"O$	c #A9453F",
"P$	c #B24946",
"Q$	c #7C3433",
"R$	c #9A3A4A",
"S$	c #7D3140",
"T$	c #502623",
"U$	c #4C2425",
"V$	c #612933",
"W$	c #883545",
"X$	c #8A3646",
"Y$	c #793040",
"Z$	c #4F2523",
"`$	c #060606",
" %	c #792F26",
".%	c #9C3E36",
"+%	c #B74C4A",
"@%	c #A84543",
"#%	c #77303A",
"$%	c #BA3F56",
"%%	c #913848",
"&%	c #56272E",
"*%	c #4D2526",
"=%	c #632932",
"-%	c #893545",
";%	c #A53F4F",
">%	c #7C313F",
",%	c #542624",
"'%	c #56261B",
")%	c #62281E",
"!%	c #913831",
"~%	c #9E3F38",
"{%	c #BE4F4E",
"]%	c #793331",
"^%	c #80333F",
"/%	c #A93E50",
"(%	c #803342",
"_%	c #4F2526",
":%	c #55252E",
"<%	c #692B36",
"[%	c #823342",
"}%	c #632933",
"|%	c #592725",
"1%	c #61291F",
"2%	c #482215",
"3%	c #7A2F27",
"4%	c #823129",
"5%	c #AE4743",
"6%	c #AD4745",
"7%	c #3E2F30",
"8%	c #4A3A3C",
"9%	c #5C2D34",
"0%	c #4C252B",
"a%	c #532720",
"b%	c #31252B",
"c%	c #552931",
"d%	c #5A2B31",
"e%	c #513135",
"f%	c #562723",
"g%	c #792E26",
"h%	c #492215",
"i%	c #52261B",
"j%	c #7F3028",
"k%	c #8A352D",
"l%	c #923E3C",
"m%	c #423F40",
"n%	c #313133",
"o%	c #4B2620",
"p%	c #352526",
"q%	c #2E2E33",
"r%	c #444545",
"s%	c #4A4B4B",
"t%	c #522621",
"u%	c #7E3028",
"v%	c #56251A",
"w%	c #57271F",
"x%	c #83342C",
"y%	c #BC4E4D",
"z%	c #7B3630",
"A%	c #492824",
"B%	c #432523",
"C%	c #2D2E32",
"D%	c #4E4E4E",
"E%	c #492520",
"F%	c #782E26",
"G%	c #6D2B22",
"H%	c #52261C",
"I%	c #6F2C24",
"J%	c #712D25",
"K%	c #83332B",
"L%	c #B54B48",
"M%	c #BB4E4E",
"N%	c #4A302F",
"O%	c #343436",
"P%	c #342729",
"Q%	c #562820",
"R%	c #4F2620",
"S%	c #2C2D31",
"T%	c #4A2520",
"U%	c #512519",
"V%	c #50251A",
"W%	c #5D2920",
"X%	c #81332B",
"Y%	c #B84C4B",
"Z%	c #48302F",
"`%	c #29292F",
" &	c #39231F",
".&	c #54271E",
"+&	c #552720",
"@&	c #30282B",
"#&	c #442621",
"$&	c #54251A",
"%&	c #65291F",
"&&	c #6E2B22",
"*&	c #50251B",
"=&	c #983C34",
"-&	c #A84540",
";&	c #43282B",
">&	c #242429",
",&	c #4B2418",
"'&	c #51261D",
")&	c #2F2528",
"!&	c #3A3A3B",
"~&	c #2F3030",
"{&	c #462215",
"]&	c #452113",
"^&	c #4A2317",
"/&	c #55261D",
"(&	c #80332B",
"_&	c #9C3F36",
":&	c #412729",
"<&	c #2C2C30",
"[&	c #4B4B4B",
"}&	c #484A4A",
"|&	c #545454",
"1&	c #5A5A5A",
"2&	c #575757",
"3&	c #585858",
"4&	c #666666",
"5&	c #6A6A6A",
"6&	c #696969",
"7&	c #2D2221",
"8&	c #3B2524",
"9&	c #702F26",
"0&	c #422B2A",
"a&	c #606060",
"b&	c #555555",
"c&	c #595959",
"d&	c #626262",
"e&	c #27272E",
"f&	c #3E3E3F",
"g&	c #505050",
"h&	c #636A6A",
"i&	c #424444",
"j&	c #565656",
"k&	c #5D5D5D",
"l&	c #676767",
"m&	c #636363",
"n&	c #525252",
"o&	c #FEFEFE",
"p&	c #ECECEC",
"q&	c #DCDCDC",
"r&	c #DEDEDE",
"s&	c #232327",
"t&	c #2F2F34",
"u&	c #413D3C",
"v&	c #282829",
"w&	c #DDDDDD",
"x&	c #2C2C2F",
"y&	c #303033",
"z&	c #323235",
"A&	c #414143",
"B&	c #4C5052",
"C&	c #4E5355",
"D&	c #3A3A3D",
"E&	c #272728",
"F&	c #4D4E4E",
"G&	c #646B6B",
"H&	c #565959",
"I&	c #272626",
"J&	c #4B4E4F",
"K&	c #464749",
"L&	c #2C2B2C",
"  . + + + + + + + + + + + + + + + + + + + @ # $ + + + + + + % & + + + + + + + + + + + .   ",
". * = = = = - - - - - - - - - - - - = ; > , ' ) ! ~ - - - { ] ^ = = - - - - - - - - - * . ",
"+ = / ( _ : < < [ } } } } | : 1 1 1 : 2 3 , 4 5 6 7 ~ 8 ( 9 0 a b c 1 < < < < < < 1 d e + ",
"+ = ( f g h i i j k l m k n o p p q r s t 4 4 4 u t v @ w x y z A B B B B B B B B B p C + ",
"+ = _ g D p E E i j F _ f g G H H I J K L M N O P K Q R S B q T U E E E E E E E E E A C + ",
"+ = V h p U E E U W 1 X j j Y Z < < `  ...+.@.#.$.%.&.*.=.p U U U U U U U U U U U E A C + ",
"+ = -.B E E T i i ;.a >.p p A ,.Z '.).!.~.{.].^./.(._.@ :.h p i i i i i i i i i p i i C + ",
"+ = -.B E E i H -.a d c -.I p B z <.[.}.|.1.2.3.4.5.6.7.8.n -.-.-.-.-.-.-.-.-.-.-.y 9.C + ",
"+ = V Y j Y X ( / F 0.F / m -.a.I b.c.d.e.f.g.h.i.j.k.l.f m.F F F F F [ [ [ F m.< f b n.+ ",
"+ o.Z y y p.q.r.s.s.s.s.s.F t.u.v.w.x.y.z.A.B.C.D.E.F.G.H.F } } } } I.J.q.s.q.( n G -.o.+ ",
"+ C z B B ,.p.d f < < < k K.L.M.N.O.P.Q.R.S.T.U.V.W.X.Y.Z.`.} } } } | ( < < < < y p p C + ",
"+ C A E E B W 9.I f f f <  +.+++@+#+$+%+&+*+=+-+;+>+,+'+)+} } } } } !+: V f f 1 I A A C + ",
"+ C A E U p >.D Z ~+m.G {+]+^+/+(+_+:+<+[+}+|+1+2+3+4+5+} } } } } } !+m.f f f 1 Z ,.>.n.+ ",
"+ C q i p Y 0.6+s.7+8+9+0+a+b+c+d+e+f+^+g+h+i+j+k+l+m+n+o+p+} } } } !+m.f f f n Z Z 1 e + ",
"+ e q+-.g k : : : : k r+s+t+u+v+w+x+y+z+A+B+C+D+E+F+G+H+I+J+} } } } !+m.f f d K+z W c = + ",
"+ - } q.I.| F L+M+M+M+N+O+P+Q+R+S+T+U+V+W+X+Y+Z+`+ @.@+@@@} } } q.q.} 6+L+~+f I >.>.j n.+ ",
"+ e #@V $@m 1 0.r.r.r.`.%@&@*@=@-@;@>@,@'@)@!@~@{@]@^@/@(@!+_@q.p.-.V L+r./ ( : ( 1 :@*.+ ",
"+ *.<@[@X I o a 1 d f [ }@|@1@2@B E 3@,@,@4@5@6@7@8@9@0@a@F < g ,.B q G 1 : q.q.[ F l = + ",
"+ o.b@H c Z a.n H 9.;.V c@d@e@f@U g@h@,@i@j@k@l@m@n@o@p@q@r@a s@B U E q :@1 m.y s@D < = + ",
"+ = ~+< 1 < d I [@U A c c@t@u@v@o w@x@i@y@z@A@B@C@D@E@c@F@G@b i U E E E [@Y Y q U A -.= + ",
"+ e d c c c y z E E A G H@I@J@K@L@M@N@O@P@Q@R@S@T@U@V@W@X@Y@I B E E E E T T T T E A a.e + ",
"+ *.9.q q q p T E E T z Z@`@ #.#+#@###$#%#&#*#=#-#;#>#,#'#)#p T E E E E E E E E E T [@*.+ ",
"+ n.h s@B !#U U U U E W I ~#{#]#^#/#(#_#:#<#[#}#|#1#2#3#4#5#U U U U T o D >.>.>.>.>.j n.+ ",
"+ = m f K+[@W W [@z [@y f 6#7#8#9#<+(#0#a#b#c#d#e#f#g#h#i#j#q q q z W Z m.#@#@#@#@#@L+= + ",
"+ = 0.q.L+m ~+_ V a Z g 1 k#l#m#n#o#(#p#q#r#s#t#u#v#w#x#y#z#A#-.a a n $@7+l l l l l } - + ",
"+ = ~+m $@s.8 L+m.a D p.B#C#D#E#F#G#H#:#I#J#K#L#M#N#O#P#Q#R#S#;.X < < ( m _ _ _ _ _ q.= + ",
"+ = 1 I :@n _@k b ,.B j T#U#V#W#X#Y#Z#`#v# $.$+$@$#$$$%$&$*$q T o b < X b f 1 f f f ( = + ",
"+ e G i T j q.k K+i T T =$-$;$>$,$'$)$!$~${$]$^$/$($_$:$<$[$X q B j m.;.;.a q+g f f ( = + ",
"+ *.[@E U K+6+#@a K+}$|$1$2$3$(#(#4$5$6$7$8$9$0$a$b$c$d$e$< g b y g ~+9.A q [@I f f ( = + ",
"+ C A U U D 6+#@1 c f$g$h$i$(#(#_#j$k$l$m$n$o$p$q$r$s$t$u$v$:@: 0.q.s.b W E E W K+D h n.+ ",
"+ *.W z q a._@m : : w$x$y$z$(#(#A$B$C$D$E$F$o$G$H$I$J$w#K$L$D M+} } I.J.H E E E E T q *.+ ",
"+ e d c < F !+s./ / M$N$O$P$(#H#Q$R$S$|#T$o$o$U$V$W$X$Y$Z$L$~+`$I.I.`$m h A T T T B y e + ",
"+ - } / L+$@1 Y >.D  %.%y@+%(#@%#%$%%%&%o$o$o$*%=%-%;%>%,%'%M+~+~+~+$@F < -.-.-.b Z F - + ",
"+ - } / #@f q+s@B )%'@!%~%_#{%]%^%/%(%_%o$o$o$G$:%<%[%}%|%1%H H H H I -.c c c a V / } - + ",
"+ e 1 p.d f V p.2%3%4%g+5%(#6%7%8%9%0%o$o$o$o$a%b%c%d%e%f%g%h%A A A A A A B p p s@V } - + ",
"+ *.9.W X 1 f f i%j%,@k%P$(#l%m%U n%o%o$o$o$o$F$p%q%r%s%t%u%v%E E E E E U i Y y b f } - + ",
"+ C T T I 1 f f w%g%3%x%y%_#z%r%K+A%o$o$o$o$o$o$B%C%D%!#E%F%G%s@i B s@,.,.j p.< 1 < } - + ",
"+ *.[@[@b : #@#@H%I%J%K%L%M%N%O%P%Q%o$o$o$o$o$o$R%S%!#i T%I%j%U%K+D V k 1 V f f f 1 | - + ",
"+ e p.c m 7+l J.J.V%W%X%y@Y%Z%`% &.&o$o$o$o$o$o$+&@&9.z #&$&%&&&$@~+r.7+$@1 1 1 f f ~+= + ",
"+ = _ < ( 6+| F $@$@*&4@=&-&;&>&M+_ ,&H%.&o$o$F$'&)&!&A ~&~+~+{&]&$@$@7+l [ / 6+~+1 m.= + ",
"+ - } 8 !+} } : p.g ^&/&(&_&:&g g d L+} } v$v$v$d <&U [&}&s@!+| | !+} } } } q.M+_@} } - + ",
"+ v |&1&1&2&3&4&5&6&6&7&8&9&0&6&5&6&a&3&b&c&d&6&6&e&f&g&h&h&i&1&1&1&c&j&j&k&l&5&m&j&n&v + ",
"o&p&q&q&q&q&q&r&r&r&r&s&t&p u&v&r&r&w&q&q&q&w&r&r&x&y&z&A&B&C&D&q&q&q&q&q&w&r&L r&q&q&p&o&",
"                      E&F&G&H&y                       Z j ,.,.Y                           ",
"                      I&$$J&K&L&                                                          "};
