/* XPM */
static char * SPACES_xpm[] = {
"45 45 8 1",
" 	c #009828",
".	c #089828",
"+	c #088828",
"@	c #60B028",
"#	c #28A828",
"$	c #006028",
"%	c #10A028",
"&	c #007820",
"              ...........     +@     @       ",
"              ...........     +#   ++#      +",
"              ...........     +#   ++#      +",
"                                             ",
"             @   @   @                       ",
"             @   @   @                       ",
"       @++   #$++#   #$$    ##    %      @++ ",
"    @@+#  +&&% @@+++@ &&+  %  %%##    @++#  +",
"   &##+%&&+##+&##+$$%+++%   ####     &#++%&&+",
"   &##+%&&+##+&##+$$%+++%   ####     &#++%&&+",
"   +&&#   &  + %% $$&       %%# %%   +&##   &",
"    ++ +@@    @       ##   %   %%%    +  +@@ ",
"    ++ +@@    @       ##   %   %%%    +  +@@ ",
"       +##   +#      +%%      %          +## ",
"                                             ",
"                        @   @@  @@           ",
"                        @   @@  @@           ",
"       #     %    @@+   #$$+##  ##$      @++ ",
"      % %%%##  @@+## +&&%  @+++@  &++ @++#  +",
"      % %%%##  @@+## +&&%  @+++@  &++ @++#  +",
"       ####   &##+%%&+##+&&#++$%+++%%&#++%&&+",
"       %## %% +&&#   &  +  %  $&     +&##   &",
"      %   %%%  ++ ++@    @@       #   +  +@@ ",
"      %   %%%  ++ ++@    @@       #   +  +@@ ",
"        %%        ++#   +##     ++%      +## ",
"              ...........                    ",
"              ...........                    ",
"      @   @   ...........                    ",
"   $++#   #$$ ...........   ##    %      @++ ",
"   $++#   #$$ ...........   ##    %      @++ ",
"    @@++@@ &&+...........  %  %%##    @++#  +",
"   &##+$%%+++%...........   ####     &#++%&&+",
"    %% $&&    ...........   %%# %%   +&##   &",
"    %% $&&    ...........   %%# %%   +&##   &",
"   @       ## ...........  %   %%%    +  +@@ ",
"   #      +%% ...........     %          +## ",
"   #      +%% ...........     %          +## ",
"                                             ",
"                                   @@  @@   @",
"      #    %%    #    %%      @+   ##$+##   #",
"      #    %%    #    %%      @+   ##$+##   #",
"    %% %%%#    %% %%%#     @++# ++&%% @+++@@ ",
"      ####       ####    &&#++%&++#++&#++$%%+",
"      ####       ####    &&#++%&++#++&#++$%%+",
"      %#  %      %## %   ++&##  && ++ %  $&& "};
