/* XPM */
static char * BACKGROUND_xpm[] = {
"45 45 109 2",
"  	c #FFFFFF",
". 	c #FDFDFD",
"+ 	c #FCFCFC",
"@ 	c #D8D8D8",
"# 	c #B0B0B0",
"$ 	c #B1B1B1",
"% 	c #B2B2B2",
"& 	c #222222",
"* 	c #1F1F1F",
"= 	c #1E1E1E",
"- 	c #272727",
"; 	c #2B2B2B",
"> 	c #282828",
", 	c #1D1D1D",
"' 	c #1B1B1B",
") 	c #191919",
"! 	c #020202",
"~ 	c #000000",
"{ 	c #0E0E0E",
"] 	c #040404",
"^ 	c #101010",
"/ 	c #181818",
"( 	c #0F0F0F",
"_ 	c #B6B6B6",
": 	c #424242",
"< 	c #444444",
"[ 	c #454545",
"} 	c #414141",
"| 	c #2E2E2E",
"1 	c #373737",
"2 	c #3D3D3D",
"3 	c #242424",
"4 	c #0C0C0C",
"5 	c #202020",
"6 	c #2F2F2F",
"7 	c #404040",
"8 	c #3C3C3C",
"9 	c #252525",
"0 	c #171717",
"a 	c #080808",
"b 	c #353535",
"c 	c #434343",
"d 	c #343434",
"e 	c #232323",
"f 	c #474747",
"g 	c #484848",
"h 	c #464646",
"i 	c #262626",
"j 	c #0D0D0D",
"k 	c #303030",
"l 	c #313131",
"m 	c #2D2D2D",
"n 	c #111111",
"o 	c #292929",
"p 	c #333333",
"q 	c #2C2C2C",
"r 	c #3E3E3E",
"s 	c #212121",
"t 	c #131313",
"u 	c #393939",
"v 	c #383838",
"w 	c #3B3B3B",
"x 	c #2A2A2A",
"y 	c #B4B4B4",
"z 	c #1A1A1A",
"A 	c #121212",
"B 	c #B3B3B3",
"C 	c #090909",
"D 	c #010101",
"E 	c #161616",
"F 	c #0A0A0A",
"G 	c #0B0B0B",
"H 	c #030303",
"I 	c #050505",
"J 	c #363636",
"K 	c #070707",
"L 	c #060606",
"M 	c #141414",
"N 	c #151515",
"O 	c #B5B5B5",
"P 	c #323232",
"Q 	c #1C1C1C",
"R 	c #3F3F3F",
"S 	c #3A3A3A",
"T 	c #494949",
"U 	c #B9B9B9",
"V 	c #525252",
"W 	c #565656",
"X 	c #636363",
"Y 	c #6A6A6A",
"Z 	c #676767",
"` 	c #5D5D5D",
" .	c #595959",
"..	c #5A5A5A",
"+.	c #666666",
"@.	c #5C5C5C",
"#.	c #606060",
"$.	c #696969",
"%.	c #626262",
"&.	c #555555",
"*.	c #585858",
"=.	c #575757",
"-.	c #545454",
";.	c #FEFEFE",
">.	c #ECECEC",
",.	c #DCDCDC",
"'.	c #DEDEDE",
").	c #DFDFDF",
"!.	c #DDDDDD",
"  . + + + + + + + + + + + + + + + + + + + + + + + + + + + + + + + + + + + + + + + + + .   ",
". @ # # # # # # # # # $ $ $ $ # # # # # # # $ $ $ $ $ # # # # # # # # # # # # $ $ $ $ @ . ",
"+ % & * = = = = = = * - ; > , ' ) ! ~ ~ ~ ~ { ) ) ) ' * * * ' ] ~ ~ ~ ~ ^ = = ' / ) ( $ + ",
"+ _ : < < < < < < < < < [ } | 1 2 3 4 ( , = * 5 5 * 6 7 : : 8 9 , 0 a , b c c d e 5 ) $ + ",
"+ _ [ f f f f f f f f f g h 7 < } i j ^ * 5 5 5 5 5 - k l l m e 5 / n b c f f : 1 e / $ + ",
"+ _ [ f g g g g g g g g g g g : b e j ( * 5 5 5 * * = = = o p b b q * r g f f g : d s $ + ",
"+ _ c c : c c c c c c c c c : d & * t t * 5 5 & > o o o o u [ : : v > w c c h f f < x $ + ",
"+ _ 2 | x x x x x x x x x x x 9 5 5 , = 5 5 * x r } } } } < : k x - & > x l c f f < x $ + ",
"+ y ; 5 = z n ^ ^ ^ n n n n n z 5 5 s s 5 5 5 9 | k k k k 6 x 0 ( n A n ( ) q p b p s $ + ",
"+ B x m 9 ) j 4 j C D ~ ~ ~ ~ n z z z z z z ' E ] ~ ] F G ) * n 4 4 4 4 4 F j 3 | | o B + ",
"+ _ : : | = = = = ) ] ~ ~ ~ ~ H I I I I I I I ] D ~ n s e J 2 i , = = = 5 & 3 u < < } _ + ",
"+ _ [ [ k * 5 5 s ' I ~ ~ ~ ~ ~ ~ ~ ~ ~ ~ ~ ~ ~ ~ ~ e 8 r c } > = 5 5 5 k 2 r < f f [ _ + ",
"+ y v u o * 5 5 5 z I ~ ~ ~ ~ ~ ~ ~ ~ ~ ~ ~ ~ ~ ~ ~ o h g g < 1 d m z E o 1 v : g f [ _ + ",
"+ % * o o 9 5 5 5 z I ~ ~ ~ ~ ~ ~ ~ ~ ~ ~ ~ ~ ~ ~ ~ i } c c c : : J A K 4 { A p : c 7 _ + ",
"+ $ - r } J & 5 5 z I ~ ~ ~ ~ ~ ~ D D D D D D D H ! / ; q ; ; q q - , ' ' ' ' , e x i % + ",
"+ y b v v k 5 E t { ~ j j ~ ~ ~ L t M t t N t , k p b d = { n A A A M M M t n ] D j ~ # + ",
"+ O P * ) ' ) ( F t s x 3 j G I G * x | q 3 i b < f f < | / F D ~ H F F F A * 0 N s Q % + ",
"+ $ a n ^ j j ' * m 7 < u e = n G s u c R ; p c [ h f f < b ' a ~ ^ 5 & * > 8 k q R r O + ",
"+ $ = 1 S | z * P 7 f g < S > A G = q P k 9 x P p 7 g f g u 5 ) C s w 2 l 9 6 o - l | B + ",
"+ $ x [ g 7 p p R f f f g c ; ( E 6 P P k 3 = , 5 p 8 8 8 l s * j - [ g R k & = * = E $ + ",
"+ % 6 [ f h h h h f f f f < k 0 & : h h c k - - > o > e e & 5 5 ) m [ f f } | - - - & % + ",
"+ O R h f f f f f f f f f h : k ; < f f h : 7 7 7 7 1 & * 5 5 & d } h f f h : 7 7 7 2 O + ",
"+ y b v v v v v 1 8 h g g g g 1 > b v v v v v v v u l & 5 5 5 s k r f g g g g T < S d y + ",
"+ $ t Q Q Q Q Q z o r } 7 7 7 P * Q ' ' ' Q Q Q Q Q Q ' ' = 5 5 5 | R } R r r R J 5 0 $ + ",
"+ # ~ a a a a a K N 9 > > x x - * A ( ( { F K L L L L L L N * * * e o > s / E 0 t j A $ + ",
"+ $ j / / / / / 0 ) = = q w 8 8 8 u u u b s F ~ ~ ~ ~ ~ ~ a ^ ^ j 3 1 > z t ! 4 N 0 E $ + ",
"+ $ ) 5 5 5 * 5 ; q = ; 8 h 7 2 2 2 2 } [ 1 3 j ! ~ ~ ~ ~ ~ ~ ~ , b < u ; , G 9 P k * $ + ",
"+ $ ) 5 5 e i > w w z b < 7 q & 9 o o 1 h h J ' L ~ ~ H n N M / v h h c J , j b h c m % + ",
"+ $ ) 5 5 k R 7 [ 2 E e | ; e = x 2 7 : f f v Q L ~ ~ n b r 2 r < g [ J > Q { J g f R O + ",
"+ y d 1 J r f f r ; 4 j A ' P v v u u u v v | ' L j t ' p S u u u u J - * Q { 1 g g [ _ + ",
"+ O 7 h f f f f l C D ~ ~ M 1 7 u i 5 s 5 5 5 Q ( ) 5 * , Q , , , , Q ' ' 0 G 6 7 } r O + ",
"+ % | < h h h [ d 0 L D D L E ) ' * 5 s & & e & 5 & e s N G a a K C { ( ( 4 I n = - & % + ",
"+ # n o ; x x x = n N E E E M M / = = q S w w w 8 8 w w v ; / E a , b 1 v p * N t ( ~ # + ",
"+ # ~ ( s > - - - x k l l l l o 9 k l S f g f [ R < f f g u s * { > [ g < S i 5 Q ( ~ # + ",
"+ # ~ s S : : < [ [ [ [ [ [ [ d x R [ [ [ h g } k r f f [ J s * ( 9 : [ v 3 s 5 & 3 * % + ",
"+ # ~ 5 ; | p c g f f f f f f P ) | } R p : g [ 7 < f [ b - 5 * ^ 0 q | > 5 5 * q r 2 O + ",
"+ # ~ = * = 3 b u u S < c S u i F * P v u < g [ 8 v u 1 - * 5 5 n { = * 5 5 5 * k h h _ + ",
"+ # ] * 5 5 5 s * , s 1 J 5 , n C z Q | 7 : : 8 > > > = Q Q Q ' { 4 ' Q Q Q Q ' ; R R O + ",
"+ $ E 5 5 * * * N K F E N F a I H a a ) > o o - e v J n K C C C ] ] C C C C a K 0 - 3 % + ",
"+ $ z * E { ( ^ a K N N N E E E N E E ) , = = Q 0 q m / M N N N N N N N N n ] { ) = / $ + ",
"+ # ~ ~ G M j ~ ~ ~ ~ I ] ] I ) = F H M & e / ~ ~ ~ t & e e e e e e e e 3 ' ~ ~ I ! ~ # + ",
"+ U V W X Y Z ` W W  .........X +.@. .#.$.$.%. .&.*.#.$.Y $.$.$.$.$.$.$.Y +.*.=.....-.U + ",
";.>.,.,.'.).'.!.,.,.,.,.,.,.,.'.'.!.,.!.'.'.!.,.,.,.!.'.'.'.'.'.'.'.'.'.'.'.,.,.,.,.,.>.;.",
"                                                                                          ",
"                                                                                          "};
