/* XPM */
static char * WALL_xpm[] = {
"45 45 16 1",
" 	c #60B020",
".	c #104800",
"+	c #002808",
"@	c #007810",
"#	c #006838",
"$	c #489810",
"%	c #489820",
"&	c #70F850",
"*	c #209000",
"=	c #50A808",
"-	c #B0F858",
";	c #60F038",
">	c #103818",
",	c #50D018",
"'	c #000800",
")	c #287018",
"    ..+++@@..++.####++..++++++++++..@@##..$%%",
"  ....+@@@@@@..#&&&&**+++++++..##+++..++..$%%",
"  ....+@@@@@@..#&&&&**+++++++..##+++..++..$%%",
"......+@@####..=&&&&&&  .++..@@   ++..++$$$%%",
"......+@@####..=&&&&&&  .++..@@   ++..++$$$%%",
"++....+++++....&--------@..**==   ++++....$%%",
"++....+++++....&--------@..**==   ++++....$%%",
"++++..+****@@..---;;&&---..**====@++..####@>>",
"++++..+****@@..---;;&&---..**====@++..####@>>",
"..####.    ==@@=;;;;;;;;;..****@@.....#####>>",
"++####+      **#,,;;;;;;=++++##@@#++++..##.>>",
"++####+      **#,,;;;;;;=++++##@@#++++..##.>>",
"+++++++##====**.==,,;;,,=++@@==--&;;==+++++%%",
"+++++++##====**.==,,;;,,=++@@==--&;;==+++++%%",
"  .....''##@@@@'##  ;;==+**,,&&---&&;;@@++$%%",
"  .....''##@@@@'##  ;;==+**,,&&---&&;;@@++$%%",
"..++...++''''++'''**==@@.;;;;;;&&-&&==##++.%%",
"..++...++''''++'''**==@@.;;;;;;&&-&&==##++.%%",
"..''++.@@$$==  $##''**..=;;;;;;;;===''++++.%%",
"  ....$  &&--;;;==@@++@@ ====$$@@'''@@    $%%",
"  ....$  &&--;;;==@@++@@ ====$$@@'''@@    $%%",
"    @@;&&--&&;;;;;==@@**+....''++@$$      $%%",
"    @@;&&--&&;;;;;==@@**+....''++@$$      $%%",
"  ..++=;;----;; **@@==**+++''''..$$$$$  @@.%%",
"  ..++=;;----;; **@@==**+++''''..$$$$$  @@.%%",
"++@@##+''''''@@@....##**#****..''+++....++$%%",
"++@@##+''''''@@@....##**#****..''+++....++$%%",
"++@@###''..))$$;==  $$**$====  ,,=..++####.%%",
"++++@@'..  --;;;;;  @@@@+==;;;;;;-  ++#####>>",
"++++@@'..  --;;;;;  @@@@+==;;;;;;-  ++#####>>",
"....++'##&&----;;;$$++@@+$$  ;;---&&**++##@>>",
"....++'##&&----;;;$$++@@+$$  ;;---&&**++##@>>",
"..@@@@.$$&&&&;;;  ##''@@+''++    &&&$$++++.%%",
"..@@@@.$$&&&&;;;  ##''@@+''++    &&&$$++++.%%",
"++@@@@'**==    @''''++@@''''''''''''......$%%",
"++@@@@'**==    @''''++@@''''''''''''......$%%",
"$$++'''''++##'''@@@@++###++''''''.@@@@##...%%",
"$$..''+++++''''***@@''##+..####'''@@@@@@++.%%",
"$$..''+++++''''***@@''##+..####'''@@@@@@++.%%",
"  $$''+++''''''***@@''##'##****@@'''''++++.%%",
"  $$''+++''''''***@@''##'##****@@'''''++++.%%",
"      ++++++++++++++++..+####@@@@+..##..$$$%%",
"      ++++++++++++++++..+####@@@@+..##..$$$%%",
"    ..+++@@..++.####++..++++++++++..@@##..$%%",
"    ..+++@@..++.####++..++++++++++..@@##..$%%"};
